<?xml version="1.0" encoding="utf-8"?>
<!-- Generator: Adobe Illustrator 16.0.0, SVG Export Plug-In . SVG Version: 6.00 Build 0)  -->
<!DOCTYPE svg PUBLIC "-//W3C//DTD SVG 1.1//EN" "http://www.w3.org/Graphics/SVG/1.1/DTD/svg11.dtd">
<svg version="1.1" id="Layer_1" xmlns="http://www.w3.org/2000/svg" xmlns:xlink="http://www.w3.org/1999/xlink" x="0px" y="0px"
	 width="24px" height="24px" viewBox="0 0 24 24" enable-background="new 0 0 24 24" xml:space="preserve">
<g>
	<path fill-rule="evenodd" clip-rule="evenodd" fill="#666666" d="M-0.146,14.33c0.02-0.439,0.02-0.879,0-1.318
		c0.022-0.459,0.022-0.918,0-1.376c0.02-0.439,0.019-0.879,0-1.319c0.021-0.442,0.022-0.885,0-1.328c0.02-0.456,0.019-0.912,0-1.368
		c0.022-0.442,0.022-0.885,0-1.327c0.004-0.211,0.017-0.424,0.011-0.635c-0.033-1.064,0.833-2.038,2.042-2.052
		C2.11,3.605,2.314,3.602,2.518,3.599c0.458,0,0.916,0,1.373,0c0.441,0,0.881,0,1.322,0c0.458,0,0.915,0,1.373,0
		c0.441,0,0.882,0,1.322,0c0.441,0,0.883,0,1.324,0c0.457,0,0.914,0,1.372,0c0.44,0,0.882,0,1.323,0c0.44,0,0.882,0,1.322,0
		c0.212,0.003,0.423,0.004,0.634,0.009c0.984,0.021,1.758,0.611,1.998,1.523c0.1,0.383,0.047,0.777,0.07,1.166
		c0,0.441,0,0.881,0,1.322c0,0.458,0,0.916,0,1.374c0,0.44,0,0.88,0,1.321c0,0.441,0,0.883,0,1.325c0,0.457,0,0.914,0,1.37
		c0,0.442,0,0.885,0,1.325s0,0.882,0,1.321c0,0.458,0,0.916,0,1.374c-0.002,0.237-0.002,0.473-0.008,0.709
		c-0.029,0.852-0.559,1.562-1.363,1.848c-0.434,0.156-0.885,0.104-1.33,0.131c-0.441-0.049-0.884-0.046-1.326-0.002
		c-0.439,0-0.879,0-1.318,0c-0.459-0.047-0.918-0.047-1.377,0c-0.44,0-0.88,0-1.319,0c-0.442-0.044-0.883-0.047-1.325,0.002
		c-0.457,0-0.914,0-1.371,0c-0.441-0.047-0.883-0.047-1.324,0c-0.457,0-0.913,0-1.37,0c-0.231-0.066-0.469-0.028-0.702-0.029
		c-1.054-0.006-1.962-0.912-1.952-2.003c0.002-0.219-0.008-0.438-0.012-0.658c0.019-0.456,0.02-0.912,0-1.368
		C-0.124,15.216-0.125,14.772-0.146,14.33z M7.911,6.974C7.326,6.867,6.935,7.123,6.919,7.623C6.875,8.079,6.882,8.534,6.921,8.99
		c-0.046,0.442-0.045,0.884,0,1.325c0.039,0.262-0.059,0.391-0.335,0.344c-0.458,0-0.915,0-1.373,0c-0.441,0-0.881,0-1.322,0
		c-0.183-0.023-0.334,0.057-0.461,0.171c-0.245,0.22-0.239,0.513-0.206,0.808c-0.004,0.121-0.017,0.242-0.009,0.362
		c0.024,0.384,0.277,0.622,0.675,0.646c0.442,0.023,0.883,0.021,1.326,0.001c0.456,0.021,0.912,0.021,1.369-0.001
		c0.239-0.024,0.355,0.072,0.317,0.322c-0.002,0.014,0.012,0.029,0.019,0.043c-0.041,0.439-0.041,0.879,0,1.318
		c-0.042,0.442-0.047,0.885,0.001,1.326c-0.033,0.266,0.096,0.449,0.304,0.587c0.21,0.141,0.449,0.098,0.681,0.091
		c0.13,0.001,0.26,0.013,0.389,0.003c0.363-0.024,0.612-0.313,0.601-0.684c0.041-0.439,0.039-0.88-0.001-1.32
		c0.049-0.442,0.041-0.885,0.003-1.327c0.004-0.219,0.038-0.408,0.332-0.358c0.458,0.021,0.916,0.021,1.375,0.001
		c0.439,0.019,0.88,0.021,1.319-0.002c0.307,0.011,0.502-0.148,0.623-0.412c0.087-0.192,0.066-0.396,0.047-0.599
		c0.004-0.105,0.016-0.211,0.01-0.316c-0.025-0.392-0.286-0.643-0.677-0.659c-0.441,0-0.883,0-1.323,0c-0.458,0-0.915,0-1.372,0
		c-0.23,0.029-0.357-0.051-0.316-0.305c0.002-0.013-0.013-0.029-0.02-0.043c0.042-0.439,0.041-0.879,0-1.318
		c0.043-0.459,0.046-0.917-0.002-1.376C8.897,7.099,8.391,6.867,7.911,6.974z"/>
	<path fill-rule="evenodd" clip-rule="evenodd" fill="#666666" d="M22.656,4.943c0.113,0.015,0.225,0.029,0.336,0.042
		c0.477,0.159,0.795,0.482,0.984,0.942c0.008,0.123,0.016,0.246,0.023,0.37c0,0.44,0,0.88,0,1.321c-0.021,0.458-0.021,0.916,0,1.374
		c0,0.44,0,0.88,0,1.321c-0.021,0.442-0.023,0.884,0,1.325c0,0.457,0,0.914,0,1.37c-0.023,0.442-0.021,0.885,0,1.325
		c0,0.44,0,0.882,0,1.321c-0.023,0.458-0.021,0.916-0.002,1.374c-0.008,0.122-0.018,0.244-0.027,0.367
		c-0.195,0.458-0.523,0.777-0.996,0.945c-0.105,0.006-0.211,0.013-0.316,0.018c-0.105-0.005-0.213-0.008-0.318-0.013
		c-0.385-0.149-0.697-0.426-1.057-0.625c-0.865-0.629-1.748-1.233-2.645-1.82c-0.133-0.117-0.277-0.222-0.438-0.299
		c-0.309-0.218-0.617-0.435-0.924-0.652c-0.002-0.205-0.002-0.409-0.002-0.614c0.047-0.442,0.047-0.886,0-1.327
		c0-0.457,0-0.912,0-1.368c0.047-0.442,0.047-0.885,0-1.328c0-0.439,0-0.879,0-1.319c0.074-0.222-0.016-0.457,0.053-0.679
		c0.35-0.213,0.689-0.441,1.01-0.697c0.117-0.043,0.211-0.123,0.303-0.204c0.906-0.604,1.811-1.215,2.691-1.857
		c0.326-0.18,0.613-0.422,0.955-0.575C22.41,4.968,22.533,4.956,22.656,4.943z"/>
</g>
</svg>
