<?xml version="1.0" encoding="utf-8"?>
<!-- Generator: Adobe Illustrator 16.0.0, SVG Export Plug-In . SVG Version: 6.00 Build 0)  -->
<!DOCTYPE svg PUBLIC "-//W3C//DTD SVG 1.1//EN" "http://www.w3.org/Graphics/SVG/1.1/DTD/svg11.dtd">
<svg version="1.1" id="Layer_1" xmlns="http://www.w3.org/2000/svg" xmlns:xlink="http://www.w3.org/1999/xlink" x="0px" y="0px"
	 width="24px" height="24px" viewBox="0 0 24 24" enable-background="new 0 0 24 24" xml:space="preserve">
<g>
	<path fill-rule="evenodd" clip-rule="evenodd" fill="#666666" d="M50.479-9.295c0.02-0.439,0.02-0.879,0-1.318
		c0.021-0.459,0.021-0.918,0-1.376c0.02-0.439,0.02-0.879,0-1.319c0.021-0.442,0.022-0.885,0-1.328c0.02-0.456,0.02-0.912,0-1.368
		c0.021-0.442,0.021-0.885,0-1.327c0.004-0.211,0.018-0.424,0.011-0.635c-0.033-1.064,0.833-2.038,2.042-2.052
		c0.204-0.002,0.408-0.005,0.611-0.009c0.458,0,0.916,0,1.373,0c0.441,0,0.881,0,1.322,0c0.458,0,0.915,0,1.373,0
		c0.44,0,0.881,0,1.322,0c0.441,0,0.883,0,1.324,0c0.456,0,0.914,0,1.371,0c0.44,0,0.883,0,1.323,0s0.882,0,1.322,0
		c0.212,0.003,0.423,0.004,0.634,0.009c0.984,0.021,1.758,0.611,1.998,1.523c0.1,0.383,0.047,0.777,0.07,1.166
		c0,0.441,0,0.881,0,1.322c0,0.458,0,0.916,0,1.374c0,0.44,0,0.88,0,1.321c0,0.441,0,0.883,0,1.325c0,0.457,0,0.914,0,1.37
		c0,0.442,0,0.885,0,1.325s0,0.882,0,1.321c0,0.458,0,0.916,0,1.374c-0.002,0.237-0.002,0.473-0.008,0.709
		c-0.029,0.852-0.559,1.562-1.363,1.848c-0.434,0.156-0.885,0.104-1.33,0.131c-0.441-0.049-0.884-0.046-1.326-0.002
		c-0.439,0-0.879,0-1.318,0c-0.459-0.047-0.918-0.047-1.377,0c-0.439,0-0.879,0-1.318,0c-0.442-0.044-0.884-0.047-1.326,0.002
		c-0.457,0-0.913,0-1.37,0c-0.441-0.047-0.883-0.047-1.324,0c-0.456,0-0.913,0-1.37,0c-0.23-0.066-0.469-0.028-0.701-0.029
		c-1.055-0.006-1.963-0.912-1.953-2.003C50.492-6.16,50.482-6.38,50.479-6.6c0.02-0.456,0.02-0.912,0-1.368
		C50.501-8.409,50.5-8.853,50.479-9.295z M58.535-16.651c-0.584-0.107-0.975,0.148-0.99,0.649c-0.045,0.456-0.037,0.911,0.002,1.367
		c-0.047,0.442-0.045,0.884-0.001,1.325c0.038,0.262-0.059,0.391-0.335,0.344c-0.458,0-0.915,0-1.373,0c-0.441,0-0.881,0-1.322,0
		c-0.184-0.023-0.334,0.057-0.461,0.171c-0.246,0.22-0.239,0.513-0.207,0.808c-0.004,0.121-0.017,0.242-0.009,0.362
		c0.024,0.384,0.277,0.622,0.675,0.646c0.442,0.023,0.884,0.021,1.326,0.001c0.457,0.021,0.912,0.021,1.369-0.001
		c0.239-0.024,0.355,0.072,0.317,0.322c-0.003,0.014,0.013,0.029,0.019,0.043c-0.041,0.439-0.041,0.879,0,1.318
		c-0.041,0.442-0.047,0.885,0.002,1.326c-0.033,0.266,0.096,0.449,0.305,0.587c0.209,0.141,0.449,0.098,0.681,0.091
		c0.13,0.001,0.261,0.013,0.39,0.003c0.362-0.024,0.611-0.313,0.6-0.684c0.041-0.439,0.039-0.88-0.001-1.32
		c0.049-0.442,0.04-0.885,0.003-1.327c0.004-0.219,0.038-0.408,0.332-0.358c0.457,0.021,0.916,0.021,1.375,0.001
		c0.439,0.019,0.879,0.021,1.318-0.002c0.307,0.011,0.502-0.148,0.623-0.412c0.087-0.192,0.066-0.396,0.047-0.599
		c0.004-0.105,0.016-0.211,0.01-0.316c-0.025-0.392-0.286-0.643-0.677-0.659c-0.44,0-0.883,0-1.323,0c-0.457,0-0.915,0-1.371,0
		c-0.23,0.029-0.357-0.051-0.316-0.305c0.002-0.013-0.014-0.029-0.02-0.043c0.041-0.439,0.041-0.879,0-1.318
		c0.043-0.459,0.047-0.917-0.002-1.376C59.522-16.526,59.016-16.758,58.535-16.651z"/>
	<path fill-rule="evenodd" clip-rule="evenodd" fill="#666666" d="M73.281-18.682c0.113,0.015,0.225,0.029,0.336,0.042
		c0.477,0.159,0.795,0.482,0.984,0.942c0.008,0.123,0.016,0.246,0.023,0.37c0,0.44,0,0.88,0,1.321c-0.021,0.458-0.021,0.916,0,1.374
		c0,0.44,0,0.88,0,1.321c-0.021,0.442-0.023,0.884,0,1.325c0,0.457,0,0.914,0,1.37c-0.023,0.442-0.021,0.885,0,1.325
		c0,0.44,0,0.882,0,1.321c-0.023,0.458-0.021,0.916-0.002,1.374c-0.008,0.122-0.018,0.244-0.027,0.367
		C74.4-5.771,74.072-5.452,73.6-5.284c-0.105,0.006-0.211,0.013-0.316,0.018c-0.105-0.005-0.213-0.008-0.318-0.013
		c-0.385-0.149-0.697-0.426-1.057-0.625c-0.865-0.629-1.748-1.233-2.645-1.82c-0.133-0.117-0.277-0.222-0.438-0.299
		c-0.309-0.218-0.617-0.435-0.924-0.652C67.9-8.881,67.9-9.085,67.9-9.29c0.047-0.442,0.047-0.886,0-1.327c0-0.457,0-0.912,0-1.368
		c0.047-0.442,0.047-0.885,0-1.328c0-0.439,0-0.879,0-1.319c0.074-0.222-0.016-0.457,0.053-0.679c0.35-0.213,0.689-0.441,1.01-0.697
		c0.117-0.043,0.211-0.123,0.303-0.204c0.906-0.604,1.811-1.215,2.691-1.857c0.326-0.18,0.613-0.422,0.955-0.575
		C73.035-18.657,73.158-18.669,73.281-18.682z"/>
</g>
<g>
	<rect fill="#666666" width="6" height="6"/>
	<rect x="9" fill="#666666" width="7" height="6"/>
	<rect x="18" fill="#666666" width="6" height="6"/>
	<rect y="8" fill="#666666" width="6" height="8"/>
	<rect x="9" y="8" fill="#666666" width="7" height="8"/>
	<rect x="18" y="8" fill="#666666" width="6" height="8"/>
	<rect y="18" fill="#666666" width="6" height="6"/>
	<rect x="9" y="18" fill="#666666" width="7" height="6"/>
	<rect x="18" y="18" fill="#666666" width="6" height="6"/>
</g>
</svg>
