<?xml version="1.0" encoding="utf-8"?>
<!-- Generator: Adobe Illustrator 16.0.0, SVG Export Plug-In . SVG Version: 6.00 Build 0)  -->
<!DOCTYPE svg PUBLIC "-//W3C//DTD SVG 1.1//EN" "http://www.w3.org/Graphics/SVG/1.1/DTD/svg11.dtd">
<svg version="1.1" id="Layer_1" xmlns="http://www.w3.org/2000/svg" xmlns:xlink="http://www.w3.org/1999/xlink" x="0px" y="0px"
	 width="100px" height="40px" viewBox="0 0 100 40" enable-background="new 0 0 100 40" xml:space="preserve">
<path fill-rule="evenodd" clip-rule="evenodd" fill="#0066CC" d="M27.929,9.384c0.48,0.091,0.961,0.182,1.44,0.274
	c0.462,0.16,0.923,0.32,1.385,0.48c0.184,0.08,0.369,0.16,0.554,0.24c0.27,0.175,0.553,0.326,0.847,0.459
	c0.205,0.139,0.41,0.279,0.615,0.418c0.821,0.558,1.523,1.249,2.185,1.981c0.343,0.438,0.648,0.9,0.958,1.362
	c0.134,0.242,0.27,0.483,0.404,0.725c0.106,0.222,0.213,0.444,0.319,0.666c0.166,0.508,0.331,1.016,0.496,1.524
	c0.083,0.436,0.165,0.872,0.246,1.308c0.032,0.464,0.064,0.929,0.096,1.394c-0.013,0.482-0.04,0.964-0.096,1.442
	c-0.091,0.464-0.181,0.928-0.27,1.393c-0.144,0.439-0.288,0.879-0.433,1.318c-0.088,0.188-0.195,0.368-0.246,0.57
	c-0.174,0.314-0.348,0.627-0.521,0.942c-0.036,0.048-0.076,0.094-0.107,0.143c-0.505,0.822-1.117,1.555-1.825,2.215
	c-0.549,0.51-1.154,0.938-1.768,1.361c-0.313,0.169-0.626,0.34-0.939,0.507c-0.201,0.063-0.39,0.151-0.574,0.252
	c-0.445,0.147-0.889,0.295-1.334,0.443c-0.478,0.096-0.955,0.191-1.432,0.287c-0.464,0.031-0.925,0.063-1.389,0.094
	c-0.464-0.031-0.929-0.063-1.394-0.094c-0.48-0.096-0.96-0.193-1.439-0.289c-0.466-0.158-0.931-0.316-1.396-0.475
	c-0.205-0.09-0.41-0.182-0.614-0.273c-0.248-0.158-0.504-0.298-0.771-0.42c-0.358-0.252-0.724-0.49-1.072-0.754
	c-0.638-0.481-1.192-1.054-1.733-1.641c-0.317-0.452-0.635-0.904-0.952-1.358c-0.174-0.313-0.347-0.626-0.52-0.94
	c-0.069-0.175-0.106-0.367-0.259-0.5c0.005-0.079-0.021-0.149-0.047-0.221c-0.138-0.386-0.283-0.769-0.374-1.17
	c-0.09-0.463-0.179-0.925-0.269-1.39c-0.057-0.479-0.085-0.961-0.098-1.445c0.032-0.463,0.063-0.927,0.095-1.39
	c0.089-0.464,0.178-0.929,0.267-1.393c0.159-0.481,0.317-0.961,0.475-1.442c0.112-0.194,0.216-0.391,0.269-0.611
	c0.18-0.242,0.318-0.509,0.446-0.781c0.06-0.082,0.126-0.161,0.18-0.248c0.392-0.625,0.845-1.198,1.359-1.726
	c0.655-0.672,1.392-1.241,2.176-1.751c0.275-0.15,0.55-0.3,0.824-0.45c0.208-0.093,0.416-0.187,0.624-0.28
	c0.463-0.161,0.927-0.322,1.39-0.483c0.48-0.092,0.96-0.183,1.44-0.274c0.463-0.033,0.927-0.066,1.391-0.1
	C27.001,9.318,27.465,9.352,27.929,9.384z M32.797,25.895c0.063-0.079,0.227-0.133,0.155-0.256
	c-0.206-0.358-0.391-0.737-0.739-0.993c-0.047-0.125-0.147-0.202-0.253-0.274c-0.343-0.351-0.733-0.633-1.193-0.814
	c-0.432-0.254-0.908-0.369-1.396-0.443c-0.496-0.103-0.981-0.088-1.449,0.127c-0.459,0.075-0.918,0.164-1.386,0.181
	c-0.467-0.021-0.926-0.104-1.385-0.185c-0.497-0.221-1.008-0.229-1.526-0.103c-0.466,0.059-0.911,0.188-1.319,0.423
	c-0.487,0.191-0.896,0.502-1.257,0.875c-0.047,0.048-0.093,0.095-0.141,0.141c-0.301,0.248-0.487,0.586-0.704,0.9
	c-0.125,0.181-0.106,0.306,0.07,0.42c0.188,0.237,0.392,0.456,0.638,0.633c0.815,0.75,1.74,1.313,2.791,1.67
	c0.464,0.184,0.942,0.318,1.443,0.369c0.458,0.11,0.923,0.127,1.39,0.11c0.468,0.013,0.935,0.002,1.393-0.108
	c0.5-0.055,0.978-0.186,1.443-0.373c1.051-0.355,1.975-0.924,2.792-1.668C32.401,26.341,32.616,26.135,32.797,25.895z
	 M30.133,18.824c0.193-0.444,0.282-0.908,0.266-1.393c0.021-0.506-0.074-0.99-0.275-1.454c-0.153-0.455-0.402-0.849-0.749-1.182
	c-0.048-0.086-0.118-0.15-0.201-0.201c-0.353-0.358-0.765-0.62-1.241-0.781c-0.446-0.195-0.91-0.283-1.397-0.253
	c-0.485-0.029-0.95,0.057-1.394,0.254c-0.476,0.159-0.89,0.421-1.24,0.78c-0.084,0.05-0.155,0.114-0.204,0.201
	c-0.349,0.335-0.598,0.735-0.754,1.193c-0.192,0.462-0.292,0.941-0.27,1.444c-0.016,0.483,0.072,0.947,0.266,1.391
	c0.152,0.462,0.401,0.864,0.756,1.199c0.049,0.082,0.108,0.154,0.193,0.202c0.351,0.365,0.776,0.613,1.245,0.792
	c0.451,0.182,0.914,0.282,1.401,0.26c0.487,0.024,0.95-0.078,1.399-0.258c0.472-0.179,0.9-0.428,1.251-0.797
	c0.083-0.047,0.143-0.118,0.19-0.199C29.733,19.688,29.979,19.286,30.133,18.824z"/>
<rect x="2.5" y="1.5" fill-rule="evenodd" clip-rule="evenodd" fill="none" stroke="#0066CC" stroke-miterlimit="10" width="94" height="38"/>
<text transform="matrix(1 0 0 1 46.3223 24.3701)" fill="#0066CC" font-family="'AdobeMyungjoStd-Medium-KSCpc-EUC-H'" font-size="11.2998">로그인</text>
</svg>
