<?xml version="1.0" encoding="utf-8"?>
<!-- Generator: Adobe Illustrator 16.0.0, SVG Export Plug-In . SVG Version: 6.00 Build 0)  -->
<!DOCTYPE svg PUBLIC "-//W3C//DTD SVG 1.1//EN" "http://www.w3.org/Graphics/SVG/1.1/DTD/svg11.dtd">
<svg version="1.1" id="Layer_1" xmlns="http://www.w3.org/2000/svg" xmlns:xlink="http://www.w3.org/1999/xlink" x="0px" y="0px"
	 width="80px" height="18px" viewBox="0 0 80 18" enable-background="new 0 0 80 18" xml:space="preserve">
<g>
	<path fill-rule="evenodd" clip-rule="evenodd" fill="#FB0202" d="M14.003,0.044c2.007-0.092,4.012-0.025,6.016,0.07
		c0.948,0.045,1.898,0.104,2.839,0.276c1.36,0.249,2.301,1.104,2.6,2.446c0.407,1.821,0.456,3.678,0.479,5.532
		c0.026,2.171-0.015,4.344-0.419,6.49c-0.314,1.667-1.299,2.574-2.975,2.781c-2.362,0.293-4.736,0.315-7.11,0.343
		c-2.654,0.034-5.309,0.002-7.958-0.149c-0.861-0.049-1.726-0.094-2.571-0.285c-1.31-0.295-2.102-1.124-2.414-2.411
		c-0.31-1.276-0.381-2.587-0.437-3.894C1.946,8.729,1.982,6.217,2.321,3.718c0.119-0.876,0.321-1.72,0.957-2.399
		C3.93,0.622,4.776,0.394,5.673,0.294c1.388-0.154,2.783-0.229,4.18-0.246C11.236,0.03,12.619,0.044,14.003,0.044z M11.59,8.989
		c-0.001,0-0.001,0-0.002,0c0,1.144-0.001,2.287,0.002,3.429c0,0.109-0.048,0.252,0.059,0.319c0.117,0.073,0.208-0.053,0.3-0.11
		c1.844-1.146,3.686-2.296,5.535-3.436c0.242-0.148,0.303-0.216,0.019-0.391c-1.866-1.15-3.726-2.311-5.583-3.477
		c-0.285-0.178-0.333-0.085-0.332,0.199C11.595,6.678,11.59,7.834,11.59,8.989z"/>
	<path fill-rule="evenodd" clip-rule="evenodd" fill="#272727" d="M65.459,6.429c0.457-0.562,0.934-1.003,1.623-1.185
		c0.959-0.253,1.863,0.175,2.24,1.088c0.373,0.91,0.436,1.878,0.449,2.839c0.027,1.712,0.123,3.428-0.143,5.132
		c-0.078,0.528-0.219,1.036-0.457,1.521c-0.768,1.567-2.82,1.192-3.512,0.227c-0.074-0.1-0.094-0.315-0.262-0.266
		c-0.143,0.044-0.102,0.242-0.127,0.374c-0.117,0.561-0.115,0.562-0.693,0.562c-0.355,0-0.713-0.022-1.064,0.006
		c-0.301,0.022-0.357-0.095-0.355-0.369c0.008-2.335,0.006-4.671,0.006-7.007c-0.002-2.768,0.004-5.535-0.01-8.302
		c0-0.309,0.082-0.394,0.383-0.379c0.521,0.026,1.043,0.023,1.563,0.002c0.279-0.011,0.367,0.064,0.365,0.358
		c-0.014,1.676-0.006,3.352-0.006,5.027C65.459,6.18,65.459,6.304,65.459,6.429z M65.457,11.231c0,0.99-0.004,1.979,0,2.969
		c0.002,0.417,0.281,0.727,0.738,0.84c0.379,0.094,0.713-0.069,0.904-0.453c0.148-0.298,0.213-0.622,0.236-0.952
		c0.123-1.761,0.113-3.522,0.002-5.285c-0.018-0.306-0.072-0.605-0.199-0.885c-0.219-0.476-0.67-0.605-1.096-0.296
		c-0.379,0.275-0.588,0.652-0.588,1.133C65.455,9.279,65.455,10.256,65.457,11.231z"/>
	<path fill-rule="evenodd" clip-rule="evenodd" fill="#272727" d="M47.543,15.384c-0.232,0.259-0.35,0.552-0.557,0.786
		c-0.574,0.659-1.736,1.069-2.834,0.44c-0.566-0.324-0.732-0.938-0.832-1.541c-0.068-0.411-0.105-0.832-0.107-1.251
		c-0.01-2.68,0-5.359-0.012-8.039c0-0.297,0.066-0.404,0.381-0.389c0.543,0.026,1.092,0.03,1.635-0.001
		c0.328-0.018,0.375,0.105,0.373,0.391c-0.008,2.604-0.006,5.208-0.002,7.811c0,0.279,0.016,0.56,0.053,0.835
		c0.045,0.315,0.158,0.611,0.521,0.667c0.365,0.058,0.658-0.114,0.898-0.382c0.172-0.189,0.201-0.418,0.201-0.669
		c-0.006-2.742,0.002-5.487-0.012-8.229c0-0.333,0.076-0.442,0.42-0.422c0.559,0.031,1.117,0.017,1.678,0.002
		c0.23-0.006,0.305,0.068,0.305,0.304c-0.006,3.569-0.008,7.139,0,10.707c0,0.253-0.07,0.334-0.322,0.323
		c-0.418-0.021-0.836-0.021-1.256-0.001c-0.248,0.009-0.293-0.087-0.346-0.315C47.652,16.084,47.707,15.733,47.543,15.384z"/>
	<path fill-rule="evenodd" clip-rule="evenodd" fill="#272727" d="M59.699,15.42c-0.348,0.337-0.568,0.745-0.939,1.046
		c-1.098,0.894-2.742,0.447-3.189-0.879c-0.197-0.58-0.207-1.173-0.207-1.769c-0.006-2.691,0.002-5.384-0.01-8.075
		c-0.002-0.303,0.1-0.362,0.371-0.352c0.535,0.021,1.07,0.025,1.6,0c0.303-0.015,0.385,0.068,0.383,0.376
		c-0.012,2.603-0.004,5.206-0.008,7.81c-0.002,0.318,0.02,0.634,0.09,0.945c0.119,0.542,0.49,0.725,0.996,0.48
		c0.396-0.191,0.615-0.48,0.613-0.955c-0.012-2.755,0.002-5.511-0.014-8.266c-0.002-0.333,0.102-0.403,0.408-0.39
		c0.543,0.023,1.092,0.023,1.635,0c0.277-0.012,0.352,0.078,0.35,0.342c-0.01,3.225-0.01,6.452-0.012,9.677
		c0,0.329-0.002,0.66,0.01,0.989c0.008,0.233-0.047,0.346-0.32,0.33c-0.43-0.028-0.863-0.017-1.295-0.002
		c-0.213,0.005-0.299-0.076-0.307-0.284C59.846,16.102,59.703,15.778,59.699,15.42z"/>
	<path fill-rule="evenodd" clip-rule="evenodd" fill="#272727" d="M35.457,11.093c-0.018-1.118-0.009-2.234,0.222-3.336
		c0.432-2.053,1.705-2.747,3.666-2.536c1.17,0.125,1.869,0.851,2.258,1.936c0.334,0.945,0.387,1.926,0.393,2.909
		c0.008,1.434,0.109,2.877-0.215,4.287c-0.223,0.958-0.537,1.909-1.596,2.304c-1.017,0.377-2.047,0.377-3.045-0.05
		c-0.876-0.373-1.24-1.155-1.438-2.026C35.441,13.432,35.438,12.262,35.457,11.093z M39.598,11.072c0-0.826,0-1.65,0-2.475
		c0-0.397-0.068-0.784-0.211-1.152c-0.115-0.292-0.322-0.491-0.655-0.493c-0.337-0.001-0.544,0.206-0.649,0.496
		c-0.085,0.236-0.145,0.491-0.163,0.74c-0.13,1.798-0.064,3.602-0.042,5.4c0.004,0.34,0.052,0.686,0.164,1.011
		c0.111,0.321,0.312,0.561,0.675,0.576c0.357,0.017,0.558-0.221,0.679-0.517c0.146-0.353,0.202-0.73,0.203-1.114
		C39.6,12.72,39.598,11.896,39.598,11.072z"/>
	<path fill-rule="evenodd" clip-rule="evenodd" fill="#272727" d="M32.207,8.87c0.104-0.562,0.191-1.055,0.288-1.545
		c0.358-1.804,0.712-3.608,1.082-5.409c0.14-0.682,0.156-0.679,0.855-0.679c0.431,0,0.865,0.019,1.295-0.005
		c0.312-0.019,0.337,0.092,0.255,0.351c-0.287,0.901-0.508,1.823-0.758,2.731c-0.262,0.952-0.467,1.927-0.714,2.888
		c-0.276,1.072-0.583,2.136-0.855,3.209c-0.193,0.759-0.331,1.523-0.304,2.32c0.04,1.206,0,2.413,0.018,3.621
		c0.005,0.308-0.091,0.386-0.388,0.375c-0.545-0.025-1.093-0.025-1.638,0.001c-0.299,0.012-0.355-0.094-0.352-0.37
		c0.014-1.32-0.021-2.643,0.018-3.963c0.021-0.718-0.187-1.378-0.348-2.052c-0.37-1.554-0.79-3.095-1.177-4.646
		c-0.338-1.357-0.696-2.713-1.073-4.062c-0.083-0.302-0.06-0.428,0.306-0.406c0.557,0.032,1.117,0.008,1.676,0.009
		c0.137,0,0.278-0.026,0.317,0.178c0.181,0.928,0.414,1.848,0.547,2.783c0.203,1.413,0.679,2.775,0.759,4.209
		C32.024,8.548,32.054,8.685,32.207,8.87z"/>
	<path fill-rule="evenodd" clip-rule="evenodd" fill="#272727" d="M70.842,11.066c-0.018-1.105-0.031-2.209,0.195-3.301
		c0.105-0.511,0.252-1.006,0.547-1.437c0.512-0.751,1.271-1.068,2.148-1.135c0.459-0.035,0.914,0.004,1.359,0.109
		c1.145,0.266,1.619,1.112,1.816,2.155c0.266,1.407,0.119,2.837,0.156,4.256c0.008,0.248-0.156,0.211-0.307,0.211
		c-1.078-0.002-2.156,0.011-3.236-0.009c-0.307-0.004-0.387,0.088-0.381,0.388c0.008,0.71,0.02,1.421,0.109,2.126
		c0.053,0.396,0.307,0.678,0.674,0.732c0.371,0.056,0.729-0.15,0.869-0.532c0.133-0.359,0.174-0.741,0.178-1.121
		c0-0.219,0.07-0.29,0.291-0.269c0.506,0.045,1.012,0.078,1.518,0.102c0.184,0.007,0.246,0.081,0.252,0.251
		c0.035,1.179-0.199,2.249-1.305,2.892c-0.836,0.486-1.742,0.494-2.68,0.295c-0.939-0.2-1.512-0.793-1.803-1.637
		c-0.268-0.779-0.395-1.606-0.402-2.441C70.836,12.157,70.842,11.61,70.842,11.066z M74.885,9.182
		c0.014-0.382-0.027-0.888-0.098-1.39c-0.02-0.125-0.055-0.248-0.094-0.368c-0.123-0.358-0.383-0.525-0.758-0.494
		c-0.354,0.03-0.662,0.291-0.695,0.613c-0.088,0.857-0.102,1.717-0.096,2.578c0,0.221,0.086,0.286,0.295,0.28
		c0.379-0.012,0.76-0.015,1.141,0c0.225,0.009,0.324-0.056,0.309-0.297C74.867,9.84,74.885,9.572,74.885,9.182z"/>
	<path fill-rule="evenodd" clip-rule="evenodd" fill="#272727" d="M53.719,10.048c0,2.095-0.008,4.191,0.006,6.285
		c0.002,0.325-0.088,0.411-0.404,0.395c-0.506-0.028-1.018-0.027-1.521,0c-0.314,0.014-0.408-0.065-0.406-0.394
		c0.014-2.769,0.006-5.537,0.006-8.305c0-1.447-0.008-2.895,0.008-4.342c0.002-0.313-0.084-0.425-0.408-0.41
		c-0.543,0.024-1.088-0.003-1.635,0.011c-0.236,0.007-0.316-0.066-0.307-0.302c0.014-0.495,0.01-0.99,0.002-1.485
		c-0.004-0.19,0.049-0.268,0.256-0.267c2.17,0.006,4.342,0.004,6.516,0c0.184,0,0.238,0.069,0.234,0.247
		c-0.008,0.508-0.014,1.016,0.004,1.524c0.006,0.221-0.074,0.288-0.287,0.283c-0.559-0.01-1.117,0.017-1.676-0.012
		c-0.332-0.017-0.395,0.108-0.395,0.412C53.723,5.807,53.719,7.928,53.719,10.048L53.719,10.048z"/>
	<path fill-rule="evenodd" clip-rule="evenodd" fill="#FDFDFD" d="M11.59,8.989c0-1.155,0.004-2.311-0.003-3.466
		c-0.001-0.284,0.047-0.377,0.332-0.199C13.775,6.49,15.635,7.65,17.501,8.8c0.284,0.175,0.223,0.243-0.019,0.391
		c-1.849,1.14-3.69,2.29-5.535,3.436c-0.092,0.058-0.183,0.184-0.3,0.11c-0.106-0.067-0.058-0.21-0.059-0.319
		c-0.003-1.143-0.002-2.285-0.002-3.429C11.589,8.989,11.589,8.989,11.59,8.989z"/>
</g>
</svg>
