<?xml version="1.0" encoding="utf-8"?>
<!-- Generator: Adobe Illustrator 16.0.0, SVG Export Plug-In . SVG Version: 6.00 Build 0)  -->
<!DOCTYPE svg PUBLIC "-//W3C//DTD SVG 1.1//EN" "http://www.w3.org/Graphics/SVG/1.1/DTD/svg11.dtd">
<svg version="1.1" id="Layer_1" xmlns="http://www.w3.org/2000/svg" xmlns:xlink="http://www.w3.org/1999/xlink" x="0px" y="0px"
	 width="24px" height="24px" viewBox="0 0 24 24" enable-background="new 0 0 24 24" xml:space="preserve">
<rect x="-177" y="-268" fill-rule="evenodd" clip-rule="evenodd" fill="#C7B299" width="483" height="238"/>
<g>
	<path fill-rule="evenodd" clip-rule="evenodd" fill="#333333" d="M23.535,11.995c0.008,6.383-5.16,11.556-11.54,11.553
		C5.617,23.547,0.456,18.37,0.465,11.985C0.474,5.653,5.629,0.492,11.958,0.478C18.348,0.465,23.531,5.621,23.535,11.995z
		 M9.81,13.22c0.877,1.412,2.399,1.761,3.772,0.862c0.955-0.625,1.221-2.232,0.533-3.222c-0.512-1.204-2.5-1.902-3.446-1.208
		C9.606,10.432,9.243,11.939,9.81,13.22z M18.758,12.071c0.096-0.979-0.143-1.902-0.457-2.813c-0.148-0.432-0.348-0.774-0.891-0.507
		c-0.475,0.234-0.764,0.546-0.461,1.111c0.775,1.453,0.783,2.899-0.031,4.347c-0.273,0.487-0.086,0.834,0.408,1.046
		c0.51,0.22,0.834,0.078,0.988-0.466C18.564,13.897,18.859,13.017,18.758,12.071z M5.259,12.009
		c-0.059,0.965,0.169,1.924,0.539,2.846c0.083,0.207,0.161,0.687,0.554,0.412c0.267-0.187,0.942-0.104,0.668-0.795
		c-0.653-1.646-0.637-3.302,0.012-4.944C7.29,8.879,6.665,9.011,6.437,8.802C6.054,8.452,5.922,8.87,5.832,9.086
		C5.448,10.004,5.22,10.961,5.259,12.009z M16.656,11.978c0.078-0.65-0.125-1.257-0.326-1.861c-0.158-0.474-0.555-0.452-0.832-0.233
		c-0.213,0.168-0.83,0.191-0.439,0.807c0.492,0.778,0.541,1.734,0.082,2.464c-0.496,0.794,0.217,0.938,0.492,1.079
		c0.506,0.259,0.674-0.239,0.803-0.654C16.598,13.058,16.713,12.533,16.656,11.978z M8.105,9.75
		c-0.327,0.022-0.377,0.319-0.45,0.529c-0.372,1.084-0.436,2.189-0.045,3.28c0.105,0.293,0.077,0.894,0.687,0.628
		c0.394-0.172,0.794-0.36,0.551-0.993c-0.292-0.76-0.293-1.595-0.004-2.352C9.149,10.042,8.475,10.047,8.105,9.75z"/>
	<path fill-rule="evenodd" clip-rule="evenodd" fill="#FDFDFD" d="M9.81,13.22c-0.567-1.28-0.204-2.788,0.859-3.567
		c0.946-0.694,2.935,0.004,3.446,1.208C12.687,11.66,11.366,12.654,9.81,13.22z"/>
	<path fill-rule="evenodd" clip-rule="evenodd" fill="#CFCFCF" d="M9.81,13.22c1.556-0.565,2.877-1.56,4.305-2.359
		c0.688,0.989,0.422,2.597-0.533,3.222C12.209,14.98,10.688,14.632,9.81,13.22z"/>
	<path fill-rule="evenodd" clip-rule="evenodd" fill="#CFCFCF" d="M18.758,12.071c0.102,0.945-0.193,1.826-0.443,2.718
		c-0.154,0.544-0.479,0.686-0.988,0.466c-0.494-0.212-0.682-0.559-0.408-1.046c0.814-1.448,0.807-2.894,0.031-4.347
		c-0.303-0.565-0.014-0.877,0.461-1.111c0.543-0.267,0.742,0.076,0.891,0.507C18.615,10.169,18.854,11.093,18.758,12.071z"/>
	<path fill-rule="evenodd" clip-rule="evenodd" fill="#FDFDFD" d="M5.259,12.009c-0.039-1.047,0.188-2.005,0.573-2.923
		c0.09-0.216,0.222-0.634,0.605-0.284C6.665,9.011,7.29,8.879,7.033,9.528c-0.649,1.642-0.666,3.298-0.012,4.944
		c0.273,0.69-0.402,0.608-0.668,0.795c-0.393,0.274-0.471-0.205-0.554-0.412C5.428,13.933,5.201,12.974,5.259,12.009z"/>
	<path fill-rule="evenodd" clip-rule="evenodd" fill="#CFCFCF" d="M16.656,11.978c0.057,0.555-0.059,1.08-0.221,1.602
		c-0.129,0.415-0.297,0.913-0.803,0.654c-0.275-0.142-0.988-0.285-0.492-1.079c0.459-0.73,0.41-1.687-0.082-2.464
		c-0.391-0.616,0.227-0.639,0.439-0.807c0.277-0.219,0.674-0.241,0.832,0.233C16.531,10.721,16.734,11.328,16.656,11.978z"/>
	<path fill-rule="evenodd" clip-rule="evenodd" fill="#FDFDFD" d="M8.105,9.75c0.369,0.297,1.044,0.292,0.739,1.092
		c-0.289,0.757-0.287,1.591,0.004,2.352c0.243,0.633-0.157,0.821-0.551,0.993c-0.61,0.266-0.582-0.335-0.687-0.628
		c-0.39-1.09-0.326-2.196,0.045-3.28C7.728,10.07,7.779,9.772,8.105,9.75z"/>
</g>
<path fill-rule="evenodd" clip-rule="evenodd" fill="#333333" d="M-23.934-60.713c5.271,0.005,9.536,4.291,9.524,9.574
	c-0.011,5.268-4.304,9.521-9.593,9.505c-5.229-0.017-9.483-4.292-9.485-9.534C-33.489-56.444-29.212-60.718-23.934-60.713z
	 M-24.318-54.075c-0.449,0.206-0.262,0.649-0.367,0.984c-1.493,0.748-2.943,1.572-4.363,2.447c-0.186,0.114-0.499,0.202-0.378,0.516
	c0.108,0.28,0.398,0.204,0.629,0.207c0.821,0.01,1.642,0.016,2.463,0.023c0.01,0.341,0.005,0.684,0.033,1.024
	c0.069,0.821-0.176,1.66,0.132,2.468c0.029,0.127,0.079,0.253,0.085,0.381c0.012,0.287,0.129,0.459,0.433,0.408
	c0.505-0.085,0.16-0.527,0.307-0.766c0.337,0.012,0.784-0.159,0.758,0.457c-0.011,0.229,0.1,0.321,0.329,0.315
	c0.248-0.006,0.31-0.146,0.296-0.354c-0.031-0.502,0.323-0.429,0.631-0.426c0.085,0.285-0.373,0.748,0.257,0.851
	c0.568,0.093,0.61-0.325,0.646-0.728c0.005-0.051,0.025-0.101,0.039-0.151c0.272-0.282,0.065-0.652,0.177-0.964
	c0.715,0.121,0.936-0.205,0.842-0.88c-0.046-0.336,0.017-0.686-0.013-1.025c-0.041-0.463,0.092-0.68,0.606-0.638
	c0.522,0.043,1.053,0.02,1.578,0.003c0.267-0.009,0.643,0.14,0.734-0.254c0.079-0.336-0.286-0.405-0.492-0.528
	c-1.433-0.857-2.876-1.697-4.315-2.542c0.025-0.323,0.083-0.66-0.331-0.802c-0.063-0.232,0.101-0.342,0.256-0.436
	c0.634-0.382,0.849-0.89,0.519-1.589c-0.368-0.781-1.072-0.544-1.666-0.51c-0.356,0.021-0.484,0.421-0.573,0.747
	c-0.033,0.12-0.032,0.305,0.104,0.35c0.381,0.124,0.478-0.197,0.63-0.439c0.136-0.217,0.386-0.222,0.567-0.136
	c0.18,0.085,0.265,0.307,0.292,0.518c0.028,0.228-0.031,0.51-0.253,0.514C-24.474-55.021-24.305-54.505-24.318-54.075z"/>
<path fill-rule="evenodd" clip-rule="evenodd" fill="#FDFDFD" d="M-22.213-47.385c-0.111,0.312,0.096,0.682-0.177,0.964
	c-0.311,0.123-0.626,0.098-0.942,0.029c-0.308-0.002-0.662-0.076-0.631,0.426c0.014,0.208-0.048,0.349-0.296,0.354
	c-0.229,0.006-0.34-0.086-0.329-0.315c0.026-0.616-0.421-0.445-0.758-0.457c-0.275-0.008-0.55-0.016-0.824-0.023
	c-0.308-0.808-0.063-1.646-0.132-2.468c-0.028-0.34-0.023-0.683-0.033-1.024c0.004-0.253,0.009-0.506,0.013-0.759
	c1.37,0.002,2.741,0.004,4.111,0.006C-22.211-49.562-22.212-48.473-22.213-47.385z"/>
<path fill-rule="evenodd" clip-rule="evenodd" fill="#CECECE" d="M-22.213-47.385c0.001-1.088,0.002-2.177,0.002-3.266
	c0.462-0.151,0.975,0.081,1.555-0.187c-0.842-0.491-1.621-0.872-2.313-1.373c-0.696-0.504-1.271-0.489-1.962,0.005
	c-0.702,0.501-1.483,0.894-2.424,1.448c0.521,0.05,0.777,0.075,1.033,0.1c-0.004,0.253-0.009,0.506-0.013,0.759
	c-0.821-0.007-1.642-0.013-2.463-0.023c-0.23-0.003-0.521,0.073-0.629-0.207c-0.121-0.314,0.192-0.402,0.378-0.516
	c1.42-0.875,2.87-1.699,4.363-2.447c0.476-0.01,0.965,0.094,1.413-0.159c1.439,0.845,2.883,1.685,4.315,2.542
	c0.206,0.123,0.571,0.192,0.492,0.528c-0.092,0.395-0.468,0.245-0.734,0.254c-0.525,0.017-1.056,0.041-1.578-0.003
	c-0.515-0.042-0.647,0.174-0.606,0.638c0.029,0.34-0.033,0.689,0.013,1.025C-21.277-47.59-21.498-47.264-22.213-47.385z"/>
<path fill-rule="evenodd" clip-rule="evenodd" fill="#CECECE" d="M-24.318-54.075c0.014-0.43-0.155-0.946,0.591-0.959
	c0.222-0.004,0.281-0.287,0.253-0.514c-0.027-0.211-0.112-0.433-0.292-0.518c-0.182-0.086-0.432-0.081-0.567,0.136
	c-0.152,0.242-0.249,0.563-0.63,0.439c-0.137-0.044-0.138-0.23-0.104-0.35c0.089-0.325,0.217-0.726,0.573-0.747
	c0.594-0.034,1.298-0.271,1.666,0.51c0.33,0.7,0.115,1.207-0.519,1.589c-0.155,0.094-0.319,0.204-0.256,0.436
	C-23.842-54.061-24.08-54.068-24.318-54.075z"/>
<path fill-rule="evenodd" clip-rule="evenodd" fill="#FDFDFD" d="M-24.318-54.075c0.238,0.007,0.477,0.015,0.715,0.022
	c0.414,0.142,0.356,0.479,0.331,0.802c-0.448,0.253-0.938,0.149-1.413,0.159C-24.58-53.426-24.768-53.869-24.318-54.075z"/>
<path fill-rule="evenodd" clip-rule="evenodd" fill="#CECECE" d="M-23.332-46.392c0.316,0.069,0.632,0.094,0.942-0.029
	c-0.014,0.05-0.034,0.1-0.039,0.151c-0.036,0.403-0.078,0.821-0.646,0.728C-23.705-45.644-23.247-46.106-23.332-46.392z"/>
<path fill-rule="evenodd" clip-rule="evenodd" fill="#CECECE" d="M-26.17-46.407c0.274,0.008,0.549,0.016,0.824,0.023
	c-0.146,0.239,0.198,0.681-0.307,0.766c-0.304,0.051-0.421-0.121-0.433-0.408C-26.091-46.153-26.141-46.28-26.17-46.407z"/>
<path fill-rule="evenodd" clip-rule="evenodd" fill="#414141" d="M-26.322-50.657c-0.256-0.025-0.513-0.05-1.033-0.1
	c0.94-0.555,1.722-0.947,2.424-1.448c0.69-0.494,1.266-0.509,1.962-0.005c0.692,0.501,1.472,0.881,2.313,1.373
	c-0.58,0.268-1.093,0.036-1.555,0.187C-23.581-50.653-24.952-50.655-26.322-50.657z"/>
<path fill-rule="evenodd" clip-rule="evenodd" fill="#333333" d="M7.03-59.752c4.555-0.006,8.246,3.675,8.246,8.224
	c0.001,4.55-3.688,8.234-8.241,8.229c-4.518-0.005-8.2-3.678-8.212-8.19C-1.188-56.047,2.485-59.746,7.03-59.752z M7.043-54.167
	c-1.46-0.013-2.92-0.019-4.38-0.042c-0.328-0.005-0.433,0.119-0.431,0.441c0.013,1.506,0.008,3.014,0.004,4.521
	c0,0.226,0.021,0.407,0.313,0.415c1.365,0.034,2.755,0.167,3.883-0.853c0.145-0.131,0.319-0.158,0.469-0.253
	c0.37-0.02,0.631,0.227,0.932,0.379c0.509,0.259,0.917,0.736,1.546,0.74c0.684,0.004,1.367-0.006,2.051,0.006
	c0.313,0.005,0.45-0.103,0.447-0.436c-0.011-1.526-0.008-3.053-0.001-4.58c0.001-0.29-0.113-0.417-0.402-0.408
	C9.997-54.191,8.518-54.32,7.043-54.167z"/>
<path fill-rule="evenodd" clip-rule="evenodd" fill="#D5D5D5" d="M7.043-54.167c1.475-0.153,2.954-0.024,4.431-0.069
	c0.289-0.009,0.403,0.119,0.402,0.408c-0.007,1.526-0.01,3.053,0.001,4.58c0.003,0.333-0.134,0.441-0.447,0.436
	c-0.684-0.012-1.367-0.002-2.051-0.006c-0.629-0.004-1.037-0.481-1.546-0.74c-0.301-0.153-0.562-0.399-0.932-0.379
	c0.097-0.252,0.16-0.504,0.156-0.783C7.041-51.87,7.046-53.019,7.043-54.167z M9.27-52.657c-0.76,0.048-1.134,0.389-1.079,0.985
	c0.049,0.537,0.588,0.983,1.128,0.934c0.533-0.048,0.954-0.537,0.922-1.068C10.205-52.398,9.867-52.694,9.27-52.657z"/>
<path fill-rule="evenodd" clip-rule="evenodd" fill="#FDFDFD" d="M7.043-54.167c0.003,1.148-0.002,2.297,0.015,3.445
	c0.004,0.279-0.06,0.531-0.156,0.783c-0.149,0.095-0.324,0.122-0.469,0.253c-1.128,1.02-2.518,0.887-3.883,0.853
	c-0.292-0.007-0.313-0.188-0.313-0.415c0.004-1.507,0.009-3.014-0.004-4.521c-0.002-0.323,0.103-0.447,0.431-0.441
	C4.123-54.186,5.583-54.18,7.043-54.167z M4.839-50.823c0.699,0.013,1.093-0.311,1.117-0.92c0.021-0.515-0.535-1.086-1.058-1.089
	c-0.55-0.002-1.035,0.479-1.048,1.04C3.837-51.192,4.201-50.835,4.839-50.823z"/>
<path fill-rule="evenodd" clip-rule="evenodd" fill="#424242" d="M9.27-52.657c0.598-0.038,0.936,0.258,0.971,0.851
	c0.032,0.532-0.389,1.02-0.922,1.068c-0.54,0.049-1.079-0.397-1.128-0.934C8.136-52.268,8.51-52.609,9.27-52.657z"/>
<path fill-rule="evenodd" clip-rule="evenodd" fill="#424242" d="M4.839-50.823c-0.638-0.012-1.002-0.369-0.988-0.97
	c0.013-0.561,0.498-1.042,1.048-1.04c0.522,0.002,1.078,0.574,1.058,1.089C5.932-51.134,5.538-50.811,4.839-50.823z"/>
<path fill-rule="evenodd" clip-rule="evenodd" fill="#666666" d="M31.977-58.555c3.683-0.005,6.697,3.027,6.701,6.739
	c0.004,3.6-3.031,6.626-6.659,6.641c-3.736,0.015-6.725-2.996-6.721-6.77C25.302-55.552,28.331-58.55,31.977-58.555z M29.972-52.533
	c-0.312,0-0.625,0.02-0.936-0.004c-0.561-0.044-0.401,0.371-0.379,0.631c0.022,0.264-0.265,0.732,0.364,0.713
	c0.535-0.016,1.073,0.033,1.604-0.013c0.535-0.046,0.77,0.085,0.706,0.674c-0.056,0.529,0.012,1.07-0.018,1.603
	c-0.033,0.611,0.409,0.391,0.685,0.4c0.287,0.009,0.703,0.179,0.667-0.419c-0.037-0.622,0.005-1.248-0.013-1.871
	c-0.009-0.293,0.094-0.389,0.383-0.381c0.624,0.017,1.25-0.024,1.872,0.013c0.6,0.035,0.423-0.384,0.416-0.669
	c-0.007-0.277,0.207-0.718-0.402-0.682c-0.511,0.03-1.027-0.03-1.536,0.016c-0.558,0.05-0.816-0.079-0.741-0.707
	c0.063-0.527,0.015-1.068,0.013-1.603c-0.001-0.173,0.028-0.33-0.241-0.383c-0.868-0.17-1.096-0.005-1.096,0.87
	c0,0.156,0,0.312,0,0.468C31.319-52.533,31.319-52.533,29.972-52.533z"/>
<path fill-rule="evenodd" clip-rule="evenodd" fill="#666666" d="M67.606-56.299c2.078,0,4.156-0.022,6.234,0.007
	c1.975,0.027,2.996,0.911,3.081,2.902c0.104,2.454,0.099,4.919,0.005,7.374c-0.073,1.891-0.979,2.779-2.931,2.854
	c-3.036,0.117-6.077,0.104-9.117,0.115c-1.278,0.005-2.567,0.016-3.834-0.126c-1.921-0.216-2.72-0.989-2.806-2.89
	c-0.108-2.422-0.112-4.856-0.003-7.277c0.094-2.064,1.088-2.921,3.135-2.951C63.449-56.323,65.528-56.3,67.606-56.299z
	 M65.652-46.848c1.782-0.937,3.42-1.798,5.271-2.771c-1.868-1.058-3.509-1.986-5.271-2.984
	C65.652-50.638,65.652-48.864,65.652-46.848z"/>
<path fill-rule="evenodd" clip-rule="evenodd" fill="#666666" d="M90.078-44.971c-0.306,0.318-0.575,0.601-0.843,0.881
	c-2.815-2.346-3.506-8.082-0.043-11.583c0.247,0.35,0.495,0.7,0.752,1.062C87.323-51.462,87.813-47.6,90.078-44.971z"/>
<path fill-rule="evenodd" clip-rule="evenodd" fill="#666666" d="M99.744-54.793c0.292-0.278,0.588-0.561,0.878-0.838
	c3.13,2.566,3.146,8.765,0.049,11.55c-0.278-0.29-0.559-0.584-0.862-0.9C102.323-48.211,102.306-51.46,99.744-54.793z"/>
<path fill-rule="evenodd" clip-rule="evenodd" fill="#666666" d="M97.103-49.852c0.002,1.148-1.027,2.18-2.177,2.182
	c-1.148,0.002-2.18-1.027-2.182-2.177s1.027-2.18,2.177-2.182C96.069-52.031,97.101-51.002,97.103-49.852z"/>
<path fill-rule="evenodd" clip-rule="evenodd" fill="#666666" d="M92.169-47.129c-0.325,0.296-0.63,0.572-0.935,0.849
	c-1.903-1.734-1.904-5.395,0.075-7.207c0.274,0.298,0.553,0.6,0.828,0.899C90.825-50.195,90.824-49.164,92.169-47.129z"/>
<path fill-rule="evenodd" clip-rule="evenodd" fill="#666666" d="M98.532-46.225c-0.271-0.303-0.546-0.609-0.839-0.937
	c1.326-1.769,1.352-3.563-0.03-5.409c0.339-0.237,0.677-0.475,1.046-0.733C100.509-52.026,100.529-47.958,98.532-46.225z"/>
<path fill-rule="evenodd" clip-rule="evenodd" fill="#666666" d="M124.894-44.404c-0.455-0.182-0.908-0.368-1.366-0.543
	c-0.713-0.273-1.753,0.295-1.911,1.04c-0.005,0.024-0.013,0.048-0.017,0.071c-0.32,1.68-0.32,1.68-2.067,1.68
	c-1.65,0-1.65,0-1.887-1.653c-0.12-0.842-1.146-1.432-1.95-1.122c-1.536,0.594-1.536,0.594-2.353-0.822
	c-0.881-1.528-0.881-1.528,0.444-2.639c0.603-0.504,0.605-1.673,0.005-2.172c-1.328-1.104-1.328-1.104-0.479-2.567
	c0.855-1.478,0.855-1.478,2.43-0.882c0.771,0.292,1.772-0.292,1.903-1.109c0.27-1.683,0.27-1.683,1.952-1.683
	c1.718,0,1.718,0,2.039,1.655c0.174,0.893,1.169,1.433,2.025,1.099c1.474-0.575,1.474-0.575,2.248,0.775
	c0.893,1.556,0.893,1.556-0.457,2.75c-0.539,0.478-0.52,1.676,0.035,2.136c1.311,1.086,1.311,1.086,0.467,2.561
	c-0.208,0.361-0.421,0.72-0.62,1.086c-0.094,0.171-0.162,0.356-0.242,0.535C125.026-44.273,124.96-44.338,124.894-44.404z
	 M122.312-49.504c-0.023-1.409-1.259-2.631-2.655-2.624c-1.428,0.007-2.696,1.309-2.642,2.711c0.056,1.419,1.311,2.625,2.691,2.586
	C121.12-46.871,122.335-48.118,122.312-49.504z"/>
<path fill-rule="evenodd" clip-rule="evenodd" fill="#666666" d="M142.535-37.02c-0.626,0-1.107,0-1.638,0c0-4.902,0-9.761,0-14.679
	c2.543,0,5.067,0,7.605,0c0.025,0.027,0.083,0.063,0.098,0.11c0.479,1.582,0.478,1.581,2.176,1.582
	c0.934,0.001,1.867,0.005,2.801,0.011c0.056,0,0.111,0.025,0.234,0.056c0,2.82,0,5.656,0,8.539c-1.969,0-3.911,0-5.842,0
	c-0.045-0.066-0.089-0.108-0.105-0.159c-0.49-1.547-0.489-1.547-2.111-1.547c-1.044,0-2.089,0-3.218,0
	C142.535-41.06,142.535-39.09,142.535-37.02z"/>
<path fill-rule="evenodd" clip-rule="evenodd" fill="#666666" d="M170.196-49.792c0.07-4.982,4.232-9.093,9.137-9.024
	c4.98,0.07,9.091,4.232,9.023,9.138c-0.067,4.979-4.235,9.093-9.139,9.022C174.236-40.727,170.126-44.89,170.196-49.792z
	 M180.238-46.985c-0.046-1.376,0.726-2.302,1.65-3.13c2.183-1.955,0.871-5.292-1.635-5.961c-2.365-0.632-4.864,1.27-4.578,3.677
	c0.646-0.294,1.575,0.559,1.969-0.628c0.253-0.763,0.86-1.244,1.558-1.16c0.573,0.069,1.23,0.502,1.596,0.973
	c0.501,0.645,0.225,1.39-0.312,1.981c-0.448,0.494-0.954,0.942-1.364,1.466c-0.632,0.806-0.985,1.711-0.721,2.782
	C179.019-46.985,179.586-46.985,180.238-46.985z M180.19-43.332c0-0.672,0-1.231,0-1.828c-0.637,0-1.217,0-1.813,0
	c0,0.645,0,1.226,0,1.828C179.009-43.332,179.568-43.332,180.19-43.332z"/>
<path fill-rule="evenodd" clip-rule="evenodd" fill="#666666" d="M207.457-33.372c0-6.154-0.011-12.307,0.008-18.46
	c0.005-1.412,0.849-2.279,2.267-2.286c5.55-0.027,11.1-0.026,16.648-0.001c1.41,0.006,2.28,0.862,2.291,2.274
	c0.035,4.126,0.033,8.253,0.003,12.379c-0.012,1.521-0.926,2.292-2.599,2.296c-4.482,0.009-8.965,0.018-13.447-0.012
	c-0.731-0.004-1.273,0.181-1.775,0.728c-1.025,1.116-2.111,2.174-3.173,3.256C207.605-33.257,207.531-33.315,207.457-33.372z
	 M217-49.928c0,1.499,0,2.863,0,4.266c0.747,0,1.428,0,2.116,0c0-1.469,0-2.859,0-4.266C218.375-49.928,217.719-49.928,217-49.928z
	 M219.143-43.51c-0.788,0-1.443,0-2.132,0c0,0.747,0,1.426,0,2.113c0.757,0,1.437,0,2.132,0
	C219.143-42.137,219.143-42.792,219.143-43.51z"/>
</svg>
