<?xml version="1.0" encoding="utf-8"?>
<!-- Generator: Adobe Illustrator 16.0.0, SVG Export Plug-In . SVG Version: 6.00 Build 0)  -->
<!DOCTYPE svg PUBLIC "-//W3C//DTD SVG 1.1//EN" "http://www.w3.org/Graphics/SVG/1.1/DTD/svg11.dtd">
<svg version="1.1" id="Layer_1" xmlns="http://www.w3.org/2000/svg" xmlns:xlink="http://www.w3.org/1999/xlink" x="0px" y="0px"
	 width="24px" height="24px" viewBox="0 0 24 24" enable-background="new 0 0 24 24" xml:space="preserve">
<rect x="79" y="-51" fill-rule="evenodd" clip-rule="evenodd" fill="#662D91" width="24" height="48"/>
<rect x="-16" y="-50" fill-rule="evenodd" clip-rule="evenodd" fill="#534741" width="120" height="24"/>
<rect x="-703" y="-910" fill-rule="evenodd" clip-rule="evenodd" fill="#FFFFFF" width="1318" height="893"/>
<path fill-rule="evenodd" clip-rule="evenodd" fill="#666666" d="M-68.814-68.742c0-3.459,0-6.801,0-10.265c-1.12,0-2.174,0-3.228,0
	c-0.057-0.107-0.113-0.213-0.17-0.32c4.005-3.803,8.01-7.606,12.085-11.477c4.078,3.869,8.074,7.66,12.34,11.707
	c-1.413,0-2.461,0-3.617,0c0,3.504,0,6.879,0,10.363c-2.101,0-4.091,0-6.198,0c0-2.521,0-5.025,0-7.629c-1.692,0-3.272,0-4.97,0
	c0,2.521,0,5.027,0,7.621C-64.707-68.742-66.726-68.742-68.814-68.742z"/>
<path fill-rule="evenodd" clip-rule="evenodd" fill="#666666" d="M-44.369-89.432c0.21,1.436,0.396,2.934,0.667,4.415
	c0.073,0.401,0.326,0.844,0.635,1.104c0.341,0.285,0.841,0.385,1.272,0.563c0.103-0.447,0.394-0.955,0.274-1.334
	c-0.95-3.063-0.646-5.963,0.981-8.715c1.106-1.874,2.696-3.184,4.876-4.072c-0.135,0.724-0.27,1.258-0.328,1.8
	c-0.313,2.792,0.744,4.966,3.025,6.564c1.516,1.064,2.736,2.384,3.43,4.118c1.549,3.872-0.373,8.266-4.264,9.821
	c-5.582,2.232-11.298-0.641-12.545-6.404C-46.989-84.556-46.201-87.25-44.369-89.432z M-37.146-87.14
	c-0.546,1.084-0.548,1.215-0.024,3.795c0.327,1.611-0.242,2.887-1.649,3.701c-0.275,0.16-0.551,0.324-0.85,0.5
	c1.637,1.549,3.717,1.635,5.143,0.281c1.541-1.461,1.619-3.725,0.162-5.324C-35.257-85.165-36.177-86.114-37.146-87.14z"/>
<g>
	<path fill-rule="evenodd" clip-rule="evenodd" fill="#666666" d="M-12.732-79.026c-2.94,0.001-5.881,0.015-8.822-0.004
		c-1.855-0.013-2.404-0.548-2.417-2.362c-0.019-2.894-0.02-5.788,0.002-8.683c0.013-1.746,0.666-2.411,2.423-2.417
		c5.928-0.018,11.856-0.018,17.783,0.001c1.659,0.005,2.335,0.681,2.353,2.35c0.032,2.94,0.029,5.88,0.004,8.822
		c-0.015,1.681-0.631,2.274-2.365,2.287C-6.759-79.01-9.746-79.026-12.732-79.026z M-15.057-89.62c0,2.688,0,5.065,0,7.711
		c2.429-1.311,4.646-2.505,7.145-3.852C-10.425-87.118-12.621-88.303-15.057-89.62z"/>
	<path fill-rule="evenodd" clip-rule="evenodd" fill="#666666" d="M-21.682-95.115c0-0.67,0-1.246,0-1.919
		c5.976,0,11.915,0,17.966,0c0,0.622,0,1.227,0,1.919C-9.724-95.115-15.659-95.115-21.682-95.115z"/>
	<path fill-rule="evenodd" clip-rule="evenodd" fill="#666666" d="M-19.44-99.808c0-0.586,0-1.076,0-1.681c4.477,0,8.935,0,13.481,0
		c0,0.555,0,1.073,0,1.681C-10.464-99.808-14.921-99.808-19.44-99.808z"/>
</g>
<path fill-rule="evenodd" clip-rule="evenodd" fill="#666666" d="M17.41-80.845c-2.747,0-5.497,0.012-8.246-0.004
	c-1.995-0.009-2.756-0.773-2.759-2.751c-0.008-3.897-0.009-7.794,0.001-11.692c0.004-1.827,0.781-2.604,2.623-2.64
	c1.023-0.021,2.056,0.068,3.075-0.021c1.92-0.167,3.636,0.043,4.889,1.77c0.221,0.305,0.865,0.417,1.317,0.424
	c2.461,0.04,4.925,0.014,7.386,0.022c1.945,0.006,2.711,0.744,2.719,2.65c0.014,3.2,0.013,6.399,0,9.599
	c-0.007,1.817-0.799,2.623-2.636,2.638C22.99-80.829,20.2-80.845,17.41-80.845z"/>
<g>
	<path fill-rule="evenodd" clip-rule="evenodd" fill="#666666" d="M37.438-89.368c0.969,0,1.862,0,2.571,0
		c-1.254,1.251-2.563,2.557-3.808,3.796c-1.09-1.123-2.41-2.483-3.657-3.769c0.417,0,1.104-0.04,1.783,0.011
		c0.757,0.056,0.969-0.274,1.043-0.988c0.521-5.011,4.34-8.827,9.104-9.151c5.101-0.347,9.388,2.728,10.666,7.652
		c1.104,4.251-0.775,8.771-4.584,11.032c-3.844,2.281-8.699,1.818-11.904-1.142c-0.085-0.079-0.14-0.193-0.299-0.421
		c0.461-0.375,0.93-0.759,1.501-1.227c1.894,1.73,4.276,2.461,6.92,2.067c1.796-0.268,3.314-1.195,4.543-2.542
		c2.459-2.688,2.733-6.777,0.675-9.802c-2.125-3.126-5.917-4.346-9.452-3.042C39.416-95.738,37.125-92.444,37.438-89.368z"/>
	<path fill-rule="evenodd" clip-rule="evenodd" fill="#666666" d="M49.732-86.711c-0.29,0.447-0.485,0.75-0.738,1.14
		c-1.455-0.856-2.87-1.671-4.261-2.526c-0.201-0.124-0.397-0.441-0.402-0.673c-0.034-1.631-0.019-3.263-0.019-4.96
		c0.547,0,0.975,0,1.555,0c0,1.196,0.059,2.338-0.018,3.47c-0.061,0.891,0.223,1.449,1.027,1.86
		C47.843-87.907,48.751-87.299,49.732-86.711z"/>
</g>
<g>
	<path fill-rule="evenodd" clip-rule="evenodd" fill="#333333" d="M-24.073-36.052c-6.392-0.021-11.544-5.25-11.514-11.682
		c0.03-6.388,5.269-11.528,11.708-11.49c6.34,0.038,11.479,5.253,11.465,11.636C-12.43-41.192-17.646-36.028-24.073-36.052z
		 M-19.352-54.243c-1.129,0.353-2.182,0.983-3.132,1.575c-1.204,0.748-2.439,1.47-3.653,2.214c-0.471,0.287-0.646,0.623-0.63,1.175
		c0.039,1.381,0.006,2.766,0.021,4.149c0.004,0.545,0.045,0.965-0.764,0.996c-0.808,0.029-1.394,0.943-1.314,1.742
		c0.088,0.881,0.778,1.525,1.644,1.537c1.055,0.018,1.746-0.736,1.79-1.953c0.046-1.25-0.116-2.506,0.106-3.752
		c0.42-0.072,0.771-0.296,1.127-0.507c0.989-0.592,1.975-1.189,2.966-1.775c0.271-0.16,0.636-0.409,0.692,0.166
		c0.051,0.507,0.063,1.04-0.047,1.532c-0.098,0.439-0.605,0.221-0.916,0.339c-0.743,0.281-1.194,1.136-1.01,1.964
		c0.135,0.607,1.191,1.594,1.667,1.561c0.738-0.057,1.671-1.182,1.683-2.1c0.035-2.731,0.053-5.462,0.059-8.193
		C-19.063-53.807-18.869-54.19-19.352-54.243z"/>
	<path fill-rule="evenodd" clip-rule="evenodd" fill="#F0F0F0" d="M-25.283-46.56c-0.223,1.246-0.061,2.502-0.106,3.752
		c-0.044,1.217-0.735,1.971-1.79,1.953c-0.866-0.012-1.556-0.656-1.644-1.537c-0.08-0.799,0.506-1.713,1.314-1.742
		c0.809-0.031,0.768-0.451,0.764-0.996c-0.015-1.383,0.019-2.768-0.021-4.149c-0.016-0.552,0.159-0.888,0.63-1.175
		c1.214-0.744,2.449-1.466,3.653-2.214c0.95-0.592,2.003-1.223,3.132-1.575c0.034,1.069,0.215,2.203-1.168,2.648
		c-1.315,0.572-2.475,1.431-3.753,2.063c-0.828,0.411-1.331,0.923-1.141,1.9C-25.609-47.244-25.24-46.926-25.283-46.56z"/>
	<path fill-rule="evenodd" clip-rule="evenodd" fill="#D0D0D0" d="M-20.52-51.594c1.383-0.445,1.202-1.579,1.168-2.648
		c0.482,0.053,0.289,0.436,0.289,0.67c-0.006,2.73-0.023,5.462-0.059,8.193c-0.012,0.918-0.944,2.043-1.683,2.1
		c-0.476,0.033-1.532-0.953-1.667-1.561c-0.185-0.828,0.267-1.684,1.01-1.964c0.311-0.118,0.818,0.101,0.916-0.339
		c0.109-0.492,0.098-1.025,0.047-1.532c-0.057-0.575-0.422-0.326-0.692-0.166c-0.991,0.586-1.977,1.184-2.966,1.775
		c-0.355,0.211-0.707,0.435-1.127,0.507c0.043-0.367-0.326-0.684-0.13-1.072c0.396,0.1,0.669-0.168,0.966-0.337
		c0.973-0.553,1.897-1.204,2.91-1.666C-20.613-50.055-20.313-50.657-20.52-51.594z"/>
	<path fill-rule="evenodd" clip-rule="evenodd" fill="#414141" d="M-20.52-51.594c0.207,0.938-0.094,1.539-1.018,1.96
		c-1.013,0.462-1.938,1.113-2.91,1.666c-0.297,0.169-0.57,0.437-0.966,0.337c-0.19-0.978,0.313-1.489,1.141-1.9
		C-22.994-50.164-21.835-51.022-20.52-51.594z"/>
</g>
<g>
	<path fill-rule="evenodd" clip-rule="evenodd" fill="#333333" d="M-10.937-50.674c-0.008-6.35,5.124-11.494,11.466-11.494
		C6.873-62.17,12.008-57.025,12-50.678C11.994-44.38,6.873-39.246,0.582-39.23C-5.772-39.216-10.928-44.337-10.937-50.674z
		 M-1.121-49.65c0.013,0.412,0.043,0.826,0.032,1.238c-0.012,0.438,0.134,0.918-0.195,1.289c-0.718,0.809-1.979,1.018-2.949,0.533
		c-0.225-0.111-0.435-0.4-0.794-0.121c0.579,0.865,1.375,1.457,2.227,1.996c0.844,0.533,1.662,0.783,2.523,0.021
		c0.529-0.469,1.117-0.457,1.637,0.012c0.779,0.703,1.539,0.543,2.344,0.061c0.717-0.43,1.385-0.906,1.928-1.543
		c0.156-0.182,0.381-0.367,0.18-0.605c-0.701,0.049-1.152,0.949-1.924,0.52c-0.594-0.332-1.391-0.482-1.68-1.158
		c-0.559-1.311,0.336-2.893,1.811-3.239c0.885-0.208,1.535,0.471,2.076,0.95c0.584,0.518,0.037,1.473,0.293,2.254
		c0.43-0.475,0.52-1.008,0.682-1.521c0.246-0.786,0.156-1.577,0.17-2.369c0.02-1.101-0.982-1.193-1.609-1.658
		c-0.172-0.128-0.32-0.286-0.48-0.431c-0.064-0.801,0.334-1.701-0.266-2.381c-0.668-0.754-3.059-1.463-4.002-1.273
		c0.566,0.483,1.549,0.51,1.553,1.406c0.004,0.742,0.287,1.566-0.234,2.219c-0.789,0.983-2.338,0.904-3.547-0.064
		c-0.258-0.207-0.197-0.428-0.24-0.664c-0.251-1.362,0.229-2.355,1.56-2.961c-1.057-0.002-1.925,0.396-2.812,0.737
		c-1.072,0.411-1.657,1.093-1.396,2.307c0.112,0.521-0.113,0.825-0.555,1.155c-0.518,0.389-1.339,0.574-1.355,1.445
		c-0.012,0.636-0.084,1.287,0.025,1.905c0.124,0.699,0.15,1.484,0.863,2.07c0-0.496-0.018-0.877,0.005-1.256
		c0.02-0.334-0.117-0.689,0.199-0.985c1.048-0.979,1.887-1.066,3.188-0.309C-1.619-49.926-1.369-49.791-1.121-49.65z"/>
	<path fill-rule="evenodd" clip-rule="evenodd" fill="#FDFDFD" d="M-1.121-49.65c-0.248-0.141-0.498-0.276-0.744-0.42
		c-1.301-0.758-2.14-0.67-3.188,0.309c-0.316,0.295-0.179,0.651-0.199,0.985c-0.022,0.379-0.005,0.76-0.005,1.256
		c-0.713-0.586-0.739-1.371-0.863-2.07c-0.109-0.618-0.038-1.269-0.025-1.905c0.016-0.871,0.837-1.057,1.355-1.445
		c0.442-0.33,0.667-0.635,0.555-1.155c-0.262-1.214,0.324-1.896,1.396-2.307c0.887-0.341,1.755-0.739,2.812-0.737
		c-1.331,0.605-1.811,1.599-1.56,2.961c0.043,0.236-0.018,0.457,0.24,0.664c1.209,0.969,2.758,1.048,3.547,0.064
		c0.521-0.652,0.238-1.477,0.234-2.219c-0.004-0.896-0.986-0.923-1.553-1.406c0.943-0.189,3.334,0.52,4.002,1.273
		c0.6,0.68,0.201,1.58,0.266,2.381c-0.047,0.279-0.238,0.424-0.473,0.555c-0.605,0.338-1.191,0.706-1.799,1.041
		C1.549-51.094,0.213-50.375-1.121-49.65z"/>
	<path fill-rule="evenodd" clip-rule="evenodd" fill="#D7D7D7" d="M-1.121-49.65c1.334-0.725,2.67-1.444,3.998-2.176
		c0.607-0.335,1.193-0.703,1.799-1.041c0.234-0.131,0.426-0.275,0.473-0.555c0.16,0.145,0.309,0.303,0.48,0.431
		c0.627,0.465,1.629,0.558,1.609,1.658c-0.014,0.792,0.076,1.583-0.17,2.369c-0.162,0.514-0.252,1.047-0.682,1.521
		c-0.256-0.781,0.291-1.736-0.293-2.254c-0.541-0.479-1.191-1.158-2.076-0.95c-1.475,0.346-2.369,1.928-1.811,3.239
		c0.289,0.676,1.086,0.826,1.68,1.158c0.771,0.43,1.223-0.471,1.924-0.52c0.201,0.238-0.023,0.424-0.18,0.605
		c-0.543,0.637-1.211,1.113-1.928,1.543c-0.805,0.482-1.564,0.643-2.344-0.061c-0.52-0.469-1.107-0.48-1.637-0.012
		c-0.861,0.762-1.68,0.512-2.523-0.021c-0.852-0.539-1.648-1.131-2.227-1.996c0.359-0.279,0.569,0.01,0.794,0.121
		c0.971,0.484,2.231,0.275,2.949-0.533c0.329-0.371,0.184-0.852,0.195-1.289C-1.078-48.824-1.108-49.238-1.121-49.65z"/>
</g>
<g>
	<path fill-rule="evenodd" clip-rule="evenodd" fill="#333333" d="M37.635-46.472c-0.021,6.354-5.216,11.479-11.609,11.45
		c-6.35-0.027-11.463-5.234-11.427-11.633c0.036-6.305,5.22-11.416,11.563-11.402C32.521-58.044,37.655-52.859,37.635-46.472z
		 M25.851-41.872c0.427,0.398,0.714-0.051,1-0.211c1.754-0.98,3.476-2.021,5.237-2.988c0.576-0.316,0.706-0.708,0.815-1.341
		c0.417-2.381-0.494-3.849-2.733-4.654c-0.491-0.176-0.835-0.285-1.308,0.002c-0.897,0.547-1.834,1.027-2.757,1.537
		c-0.536-0.232-1.058-0.449-1.539-0.833c-0.988-0.788-1.926-1.138-3.295-0.315c-1.464,0.88-2.172,1.765-1.933,3.495
		c0.132,0.947-0.004,1.795,1.131,2.331c0.534,0.254,1.111,0.553,1.649,0.869C23.351-43.258,24.522-42.424,25.851-41.872z"/>
	<path fill-rule="evenodd" clip-rule="evenodd" fill="#D8D8D8" d="M26.105-49.527c0.923-0.51,1.859-0.99,2.757-1.537
		c0.473-0.287,0.816-0.178,1.308-0.002c2.239,0.806,3.15,2.273,2.733,4.654c-0.109,0.633-0.239,1.025-0.815,1.341
		c-1.762,0.967-3.483,2.008-5.237,2.988c-0.286,0.16-0.573,0.609-1,0.211c0.324-0.215,0.272-0.551,0.271-0.865
		C26.119-45,26.112-47.264,26.105-49.527z M30.904-47.923c0.006-0.424-0.22-0.642-0.572-0.656c-0.356-0.016-0.591,0.182-0.603,0.578
		c-0.01,0.394,0.208,0.608,0.563,0.623C30.653-47.362,30.877-47.578,30.904-47.923z M28.756-47.645
		c-0.388,0.003-0.593,0.184-0.619,0.512c-0.028,0.351,0.074,0.634,0.507,0.646c0.371,0.011,0.652-0.136,0.655-0.521
		C29.3-47.354,28.992-47.511,28.756-47.645z"/>
	<path fill-rule="evenodd" clip-rule="evenodd" fill="#F0F0F0" d="M26.105-49.527c0.007,2.264,0.014,4.527,0.017,6.791
		c0.001,0.314,0.053,0.65-0.271,0.865c-1.328-0.553-2.5-1.387-3.731-2.109c-0.538-0.316-1.115-0.615-1.649-0.869
		c-1.135-0.535-0.999-1.383-1.131-2.331c-0.239-1.73,0.469-2.615,1.933-3.495c1.369-0.822,2.307-0.473,3.295,0.315
		C25.048-49.977,25.569-49.76,26.105-49.527z M22.708-46.057c0.228-0.025,0.449-0.091,0.432-0.318
		c-0.049-0.603,0.244-0.784,0.789-0.764c0.192,0.006,0.236-0.183,0.249-0.348c0.019-0.226-0.085-0.412-0.305-0.395
		c-0.53,0.037-0.783-0.15-0.712-0.703c0.024-0.188-0.094-0.292-0.265-0.338c-0.165-0.046-0.387-0.027-0.404,0.138
		c-0.066,0.614-0.299,0.997-0.991,0.945c-0.049-0.004-0.181,0.22-0.156,0.302c0.18,0.614,1.401,0.368,1.145,1.37
		C22.484-46.147,22.643-46.089,22.708-46.057z"/>
	<path fill-rule="evenodd" clip-rule="evenodd" fill="#414141" d="M30.904-47.923c-0.027,0.345-0.251,0.561-0.611,0.545
		c-0.355-0.015-0.573-0.229-0.563-0.623c0.012-0.396,0.246-0.594,0.603-0.578C30.685-48.564,30.91-48.347,30.904-47.923z"/>
	<path fill-rule="evenodd" clip-rule="evenodd" fill="#414141" d="M28.756-47.645c0.236,0.134,0.544,0.29,0.543,0.638
		c-0.003,0.385-0.284,0.531-0.655,0.521c-0.433-0.013-0.535-0.296-0.507-0.646C28.163-47.461,28.368-47.642,28.756-47.645z"/>
	<path fill-rule="evenodd" clip-rule="evenodd" fill="#414141" d="M22.708-46.057c-0.065-0.032-0.224-0.091-0.219-0.11
		c0.257-1.002-0.965-0.756-1.145-1.37c-0.024-0.082,0.107-0.306,0.156-0.302c0.692,0.052,0.925-0.331,0.991-0.945
		c0.018-0.165,0.239-0.184,0.404-0.138c0.171,0.046,0.289,0.15,0.265,0.338c-0.071,0.553,0.182,0.74,0.712,0.703
		c0.22-0.018,0.323,0.169,0.305,0.395c-0.013,0.165-0.057,0.354-0.249,0.348c-0.545-0.021-0.838,0.161-0.789,0.764
		C23.157-46.147,22.936-46.082,22.708-46.057z"/>
</g>
<g>
	<path fill-rule="evenodd" clip-rule="evenodd" fill="#333333" d="M48.541-21.559c-6.521,0.014-11.81-5.249-11.815-11.756
		c-0.006-6.516,5.269-11.794,11.782-11.791c6.469,0.003,11.746,5.253,11.766,11.707C60.293-26.87,55.043-21.571,48.541-21.559z
		 M52.217-27.875c0.875,0.019,1.752,0.032,2.627,0.062c0.424,0.014,0.564-0.186,0.564-0.589c-0.008-3.287-0.008-6.574,0-9.86
		c0-0.404-0.141-0.604-0.564-0.59c-0.875,0.029-1.752,0.043-2.627,0.063c-2.477-0.085-4.957-0.086-7.435,0
		c-0.847-0.021-1.693-0.028-2.539-0.069c-0.542-0.026-0.647,0.255-0.646,0.724c0.011,3.202,0.011,6.403,0,9.604
		c-0.002,0.47,0.104,0.751,0.646,0.726c0.846-0.041,1.692-0.05,2.539-0.071C47.26-27.789,49.74-27.791,52.217-27.875z"/>
	<path fill-rule="evenodd" clip-rule="evenodd" fill="#FDFDFD" d="M44.782-38.79c2.478-0.086,4.958-0.085,7.435,0
		c0,3.638,0,7.276,0,10.915c-2.477,0.084-4.957,0.086-7.435-0.002C44.782-31.513,44.782-35.151,44.782-38.79z"/>
	<path fill-rule="evenodd" clip-rule="evenodd" fill="#D5D5D5" d="M44.782-38.79c0,3.639,0,7.276,0,10.913
		c-0.847,0.021-1.693,0.03-2.539,0.071c-0.542,0.025-0.647-0.256-0.646-0.726c0.011-3.201,0.011-6.402,0-9.604
		c-0.002-0.469,0.104-0.75,0.646-0.724C43.089-38.818,43.936-38.811,44.782-38.79z M43.54-36.89
		c-0.022-0.19,0.081-0.565-0.345-0.589c-0.467-0.025-0.455,0.352-0.46,0.683c-0.005,0.303-0.007,0.622,0.41,0.619
		C43.568-36.179,43.544-36.51,43.54-36.89z M43.541-29.864c0.005-0.298,0.021-0.626-0.4-0.625c-0.416,0.003-0.41,0.324-0.404,0.625
		c0.003,0.334-0.003,0.71,0.465,0.678C43.62-29.215,43.526-29.585,43.541-29.864z M43.547-33.264
		c-0.027-0.296,0.103-0.704-0.395-0.708c-0.394-0.003-0.419,0.314-0.414,0.618c0.005,0.289-0.028,0.614,0.372,0.658
		C43.535-32.649,43.548-32.959,43.547-33.264z"/>
	<path fill-rule="evenodd" clip-rule="evenodd" fill="#D5D5D5" d="M52.217-27.875c0-3.639,0-7.277,0-10.915
		c0.875-0.02,1.752-0.033,2.627-0.063c0.424-0.014,0.564,0.186,0.564,0.59c-0.008,3.286-0.008,6.573,0,9.86
		c0,0.403-0.141,0.603-0.564,0.589C53.969-27.842,53.092-27.856,52.217-27.875z M54.311-36.687
		c-0.012-0.402,0.051-0.782-0.418-0.805c-0.422-0.019-0.412,0.313-0.402,0.608c0.012,0.301-0.104,0.692,0.4,0.706
		C54.307-36.167,54.322-36.466,54.311-36.687z M54.305-29.946c0.018-0.252,0.004-0.551-0.414-0.541
		c-0.504,0.012-0.389,0.404-0.4,0.705c-0.01,0.295-0.02,0.627,0.402,0.607C54.363-29.195,54.299-29.575,54.305-29.946z
		 M53.479-33.331c0.031,0.283-0.014,0.631,0.41,0.616c0.391-0.016,0.416-0.323,0.416-0.624c0-0.306-0.037-0.608-0.426-0.611
		C53.451-33.953,53.512-33.6,53.479-33.331z"/>
	<path fill-rule="evenodd" clip-rule="evenodd" fill="#434343" d="M43.54-36.89c0.004,0.38,0.028,0.711-0.395,0.713
		c-0.417,0.003-0.415-0.316-0.41-0.619c0.005-0.331-0.007-0.708,0.46-0.683C43.621-37.456,43.518-37.081,43.54-36.89z"/>
	<path fill-rule="evenodd" clip-rule="evenodd" fill="#434343" d="M43.542-29.864c-0.016,0.278,0.078,0.648-0.341,0.678
		c-0.468,0.032-0.462-0.344-0.465-0.678c-0.006-0.301-0.012-0.622,0.404-0.625C43.563-30.49,43.546-30.162,43.542-29.864z"/>
	<path fill-rule="evenodd" clip-rule="evenodd" fill="#434343" d="M43.546-33.263c0.002,0.304-0.011,0.614-0.436,0.567
		c-0.4-0.044-0.367-0.369-0.372-0.658c-0.005-0.304,0.021-0.621,0.414-0.618C43.649-33.968,43.52-33.56,43.546-33.263z"/>
	<path fill-rule="evenodd" clip-rule="evenodd" fill="#434343" d="M54.311-36.687c0.012,0.221-0.004,0.52-0.42,0.51
		c-0.504-0.014-0.389-0.405-0.4-0.706c-0.01-0.295-0.02-0.627,0.402-0.608C54.361-37.469,54.299-37.089,54.311-36.687z"/>
	<path fill-rule="evenodd" clip-rule="evenodd" fill="#434343" d="M54.305-29.946c-0.006,0.371,0.059,0.751-0.412,0.771
		c-0.422,0.02-0.412-0.313-0.402-0.607c0.012-0.301-0.104-0.693,0.4-0.705C54.309-30.497,54.322-30.198,54.305-29.946z"/>
	<path fill-rule="evenodd" clip-rule="evenodd" fill="#434343" d="M53.479-33.331c0.033-0.27-0.027-0.622,0.4-0.619
		c0.389,0.003,0.426,0.306,0.426,0.611c0,0.301-0.025,0.608-0.416,0.624C53.465-32.7,53.51-33.047,53.479-33.331z"/>
</g>
<g>
	<path fill-rule="evenodd" clip-rule="evenodd" fill="#333333" d="M12.035,23.393C5.727,23.403,0.611,18.309,0.607,12.011
		C0.604,5.709,5.711,0.604,12.012,0.607c6.259,0.004,11.363,5.087,11.381,11.334C23.41,18.256,18.328,23.382,12.035,23.393z
		 M18.649,5.403c-0.94,0.288-1.611,1.26-2.54,0.395c-0.513-0.477-1.052-0.471-1.593-0.008c-0.596,0.512-1.187,0.45-1.778-0.033
		c-0.461-0.377-0.951-0.451-1.432-0.028c-0.652,0.574-1.302,0.527-1.941-0.007C8.907,5.34,8.466,5.337,8.017,5.724
		c-0.649,0.559-1.29,0.534-1.949,0.004C5.545,5.306,5.338,5.423,5.343,6.116c0.02,3.923,0.021,7.845-0.001,11.768
		c-0.005,0.604,0.141,0.823,0.783,0.813c2.309-0.037,4.617-0.018,6.928-0.013c0.352,0,0.68-0.037,0.998-0.225
		c1.359-0.798,2.728-1.582,4.098-2.367c0.284-0.163,0.509-0.328,0.508-0.717C18.646,12.089,18.649,8.803,18.649,5.403z"/>
	<path fill-rule="evenodd" clip-rule="evenodd" fill="#F3F3F3" d="M18.649,5.403c0,3.399-0.004,6.686,0.007,9.972
		c0.001,0.389-0.224,0.554-0.508,0.717c-1.37,0.785-2.738,1.569-4.098,2.367c-0.318,0.188-0.646,0.225-0.998,0.225
		c-2.311-0.005-4.619-0.024-6.928,0.013c-0.643,0.011-0.788-0.209-0.783-0.813c0.022-3.923,0.021-7.845,0.001-11.768
		C5.338,5.423,5.545,5.306,6.067,5.728c0.659,0.53,1.3,0.555,1.949-0.004C8.466,5.337,8.907,5.34,9.365,5.722
		c0.64,0.534,1.289,0.581,1.941,0.007c0.48-0.423,0.971-0.349,1.432,0.028c0.592,0.483,1.183,0.545,1.778,0.033
		c0.541-0.463,1.08-0.469,1.593,0.008C17.038,6.663,17.709,5.691,18.649,5.403z M11.96,9.666c1.643,0,3.29-0.063,4.929,0.026
		c0.89,0.047,0.895-0.388,0.862-1.014c-0.03-0.566,0.199-1.158-0.828-1.135c-3.096,0.071-6.193,0.025-9.291,0.025
		c-1.434,0-1.396,0-1.395,1.409c0.001,0.631,0.257,0.71,0.792,0.7C8.673,9.648,10.315,9.668,11.96,9.666z M15.767,11.74
		c0.504,0,1.008-0.009,1.512,0.004c0.311,0.008,0.471-0.104,0.466-0.433c-0.005-0.277-0.141-0.408-0.402-0.408
		c-1.071-0.004-2.143-0.006-3.214,0.002c-0.234,0.001-0.435,0.077-0.433,0.378c0.003,0.313,0.151,0.46,0.464,0.457
		C14.694,11.736,15.23,11.738,15.767,11.74z M15.707,13.342c0.537,0,1.074-0.002,1.611,0c0.257,0,0.417-0.091,0.418-0.381
		c0.001-0.262-0.087-0.421-0.378-0.42c-1.073,0.005-2.147,0.004-3.221,0.008c-0.252,0-0.421,0.096-0.437,0.379
		c-0.021,0.362,0.213,0.412,0.49,0.413C14.695,13.342,15.201,13.342,15.707,13.342z M15.854,14.258c-0.565,0-1.131-0.001-1.697,0
		c-0.238,0.001-0.448,0.058-0.455,0.349c-0.007,0.284,0.182,0.386,0.429,0.386c1.069,0.002,2.138-0.001,3.207-0.004
		c0.269-0.001,0.407-0.133,0.396-0.404c-0.014-0.307-0.232-0.326-0.464-0.326C16.798,14.258,16.326,14.258,15.854,14.258z"/>
	<path fill-rule="evenodd" clip-rule="evenodd" fill="#424242" d="M11.96,9.667c-1.645,0.001-3.287-0.019-4.931,0.012
		c-0.535,0.01-0.791-0.069-0.792-0.7C6.235,7.569,6.198,7.569,7.632,7.569c3.098,0,6.195,0.046,9.291-0.025
		c1.027-0.023,0.798,0.568,0.828,1.135c0.032,0.626,0.027,1.061-0.862,1.014C15.25,9.603,13.603,9.666,11.96,9.667z"/>
	<path fill-rule="evenodd" clip-rule="evenodd" fill="#424242" d="M15.767,11.74c-0.536-0.002-1.072-0.004-1.607,0
		c-0.313,0.003-0.461-0.145-0.464-0.457c-0.002-0.301,0.198-0.377,0.433-0.378c1.071-0.008,2.143-0.006,3.214-0.002
		c0.262,0,0.397,0.131,0.402,0.408c0.005,0.329-0.155,0.44-0.466,0.433C16.774,11.731,16.271,11.74,15.767,11.74z"/>
	<path fill-rule="evenodd" clip-rule="evenodd" fill="#424242" d="M15.707,13.342c-0.506,0-1.012,0-1.516-0.001
		c-0.277-0.001-0.511-0.051-0.49-0.413c0.016-0.283,0.185-0.379,0.437-0.379c1.073-0.004,2.147-0.003,3.221-0.008
		c0.291-0.001,0.379,0.158,0.378,0.42c-0.001,0.29-0.161,0.381-0.418,0.381C16.781,13.34,16.244,13.342,15.707,13.342z"/>
	<path fill-rule="evenodd" clip-rule="evenodd" fill="#424242" d="M15.854,14.258c0.472,0,0.943,0,1.416,0
		c0.231,0,0.45,0.02,0.464,0.326c0.011,0.271-0.128,0.403-0.396,0.404c-1.069,0.003-2.138,0.006-3.207,0.004
		c-0.247,0-0.436-0.102-0.429-0.386c0.007-0.291,0.217-0.348,0.455-0.349C14.724,14.257,15.289,14.258,15.854,14.258z"/>
</g>
<rect id="_x3C_Slice_x3E_" x="-31" y="-98" fill-rule="evenodd" clip-rule="evenodd" fill="none" width="24" height="24"/>
<rect id="_x3C_Slice_x3E__1_" x="-7" y="-98" fill-rule="evenodd" clip-rule="evenodd" fill="none" width="24" height="24"/>
<rect id="_x3C_Slice_x3E__2_" x="17" y="-98" fill-rule="evenodd" clip-rule="evenodd" fill="none" width="24" height="24"/>
<rect id="_x3C_Slice_x3E__3_" x="41" y="-98" fill-rule="evenodd" clip-rule="evenodd" fill="none" width="24" height="24"/>
<rect id="_x3C_Slice_x3E__4_" x="65" y="-98" fill-rule="evenodd" clip-rule="evenodd" fill="none" width="24" height="24"/>
<rect id="_x3C_Slice_x3E__5_" x="-31" y="-74" fill-rule="evenodd" clip-rule="evenodd" fill="none" width="24" height="24"/>
<rect id="_x3C_Slice_x3E__6_" x="-7" y="-74" fill-rule="evenodd" clip-rule="evenodd" fill="none" width="24" height="24"/>
<rect id="_x3C_Slice_x3E__7_" x="17" y="-74" fill-rule="evenodd" clip-rule="evenodd" fill="none" width="24" height="24"/>
<rect id="_x3C_Slice_x3E__8_" x="41" y="-74" fill-rule="evenodd" clip-rule="evenodd" fill="none" width="24" height="24"/>
<rect id="_x3C_Slice_x3E__9_" x="65" y="-74" fill-rule="evenodd" clip-rule="evenodd" fill="none" width="24" height="24"/>
</svg>
