<?xml version="1.0" encoding="utf-8"?>
<!-- Generator: Adobe Illustrator 16.0.0, SVG Export Plug-In . SVG Version: 6.00 Build 0)  -->
<!DOCTYPE svg PUBLIC "-//W3C//DTD SVG 1.1//EN" "http://www.w3.org/Graphics/SVG/1.1/DTD/svg11.dtd">
<svg version="1.1" id="Layer_1" xmlns="http://www.w3.org/2000/svg" xmlns:xlink="http://www.w3.org/1999/xlink" x="0px" y="0px"
	 width="24px" height="24px" viewBox="0 0 24 24" enable-background="new 0 0 24 24" xml:space="preserve">
<rect x="-177" y="-268" fill-rule="evenodd" clip-rule="evenodd" fill="#C7B299" width="483" height="238"/>
<g>
	<path fill-rule="evenodd" clip-rule="evenodd" fill="#333333" d="M-41.465-49.499c0.008,6.383-5.16,11.556-11.54,11.553
		c-6.378-0.001-11.54-5.178-11.531-11.563c0.009-6.332,5.165-11.493,11.493-11.507C-46.652-61.028-41.469-55.873-41.465-49.499z
		 M-55.19-48.273c0.877,1.412,2.399,1.761,3.772,0.862c0.955-0.625,1.221-2.232,0.533-3.222c-0.512-1.204-2.5-1.902-3.446-1.208
		C-55.394-51.062-55.757-49.554-55.19-48.273z M-46.242-49.422c0.096-0.979-0.143-1.902-0.457-2.813
		c-0.148-0.432-0.348-0.774-0.891-0.507c-0.475,0.234-0.764,0.546-0.461,1.111c0.775,1.453,0.783,2.899-0.031,4.347
		c-0.273,0.487-0.086,0.834,0.408,1.046c0.51,0.22,0.834,0.078,0.988-0.466C-46.436-47.596-46.141-48.477-46.242-49.422z
		 M-59.741-49.484c-0.059,0.965,0.169,1.924,0.539,2.846c0.083,0.207,0.161,0.687,0.554,0.412c0.267-0.187,0.942-0.104,0.668-0.795
		c-0.653-1.646-0.637-3.302,0.012-4.944c0.257-0.649-0.368-0.517-0.596-0.726c-0.383-0.35-0.515,0.068-0.605,0.284
		C-59.552-51.489-59.78-50.532-59.741-49.484z M-48.344-49.515c0.078-0.65-0.125-1.257-0.326-1.861
		c-0.158-0.474-0.555-0.452-0.832-0.233c-0.213,0.168-0.83,0.191-0.439,0.807c0.492,0.778,0.541,1.734,0.082,2.464
		c-0.496,0.794,0.217,0.938,0.492,1.079c0.506,0.259,0.674-0.239,0.803-0.654C-48.402-48.436-48.287-48.96-48.344-49.515z
		 M-56.895-51.743c-0.327,0.022-0.377,0.319-0.45,0.529c-0.372,1.084-0.436,2.189-0.045,3.28c0.105,0.293,0.077,0.894,0.687,0.628
		c0.394-0.172,0.794-0.36,0.551-0.993c-0.292-0.76-0.293-1.595-0.004-2.352C-55.851-51.451-56.525-51.446-56.895-51.743z"/>
	<path fill-rule="evenodd" clip-rule="evenodd" fill="#FDFDFD" d="M-55.19-48.273c-0.567-1.28-0.204-2.788,0.859-3.567
		c0.946-0.694,2.935,0.004,3.446,1.208C-52.313-49.833-53.634-48.839-55.19-48.273z"/>
	<path fill-rule="evenodd" clip-rule="evenodd" fill="#CFCFCF" d="M-55.19-48.273c1.556-0.565,2.877-1.56,4.305-2.359
		c0.688,0.989,0.422,2.597-0.533,3.222C-52.791-46.513-54.313-46.861-55.19-48.273z"/>
	<path fill-rule="evenodd" clip-rule="evenodd" fill="#CFCFCF" d="M-46.242-49.422c0.102,0.945-0.193,1.826-0.443,2.718
		c-0.154,0.544-0.479,0.686-0.988,0.466c-0.494-0.212-0.682-0.559-0.408-1.046c0.814-1.448,0.807-2.894,0.031-4.347
		c-0.303-0.565-0.014-0.877,0.461-1.111c0.543-0.267,0.742,0.076,0.891,0.507C-46.385-51.324-46.146-50.4-46.242-49.422z"/>
	<path fill-rule="evenodd" clip-rule="evenodd" fill="#FDFDFD" d="M-59.741-49.484c-0.039-1.047,0.188-2.005,0.573-2.923
		c0.09-0.216,0.222-0.634,0.605-0.284c0.228,0.209,0.853,0.077,0.596,0.726c-0.649,1.642-0.666,3.298-0.012,4.944
		c0.273,0.69-0.402,0.608-0.668,0.795c-0.393,0.274-0.471-0.205-0.554-0.412C-59.572-47.561-59.799-48.519-59.741-49.484z"/>
	<path fill-rule="evenodd" clip-rule="evenodd" fill="#CFCFCF" d="M-48.344-49.515c0.057,0.555-0.059,1.08-0.221,1.602
		c-0.129,0.415-0.297,0.913-0.803,0.654c-0.275-0.142-0.988-0.285-0.492-1.079c0.459-0.73,0.41-1.687-0.082-2.464
		c-0.391-0.616,0.227-0.639,0.439-0.807c0.277-0.219,0.674-0.241,0.832,0.233C-48.469-50.772-48.266-50.165-48.344-49.515z"/>
	<path fill-rule="evenodd" clip-rule="evenodd" fill="#FDFDFD" d="M-56.895-51.743c0.369,0.297,1.044,0.292,0.739,1.092
		c-0.289,0.757-0.287,1.591,0.004,2.352c0.243,0.633-0.157,0.821-0.551,0.993c-0.61,0.266-0.582-0.335-0.687-0.628
		c-0.39-1.09-0.326-2.196,0.045-3.28C-57.272-51.423-57.221-51.721-56.895-51.743z"/>
</g>
<g>
	<path fill-rule="evenodd" clip-rule="evenodd" fill="#333333" d="M11.895,0.633c6.377,0.006,11.536,5.19,11.521,11.581
		c-0.013,6.372-5.206,11.518-11.604,11.497C5.486,23.693,0.34,18.52,0.338,12.18C0.335,5.797,5.51,0.627,11.895,0.633z
		 M11.429,8.663c-0.543,0.25-0.316,0.786-0.444,1.19c-1.806,0.905-3.56,1.901-5.278,2.96c-0.225,0.138-0.604,0.244-0.457,0.624
		c0.131,0.34,0.482,0.246,0.761,0.25c0.993,0.014,1.986,0.02,2.979,0.027c0.012,0.414,0.006,0.828,0.04,1.24
		c0.084,0.992-0.212,2.006,0.16,2.984c0.036,0.154,0.096,0.307,0.103,0.461c0.014,0.348,0.156,0.555,0.523,0.494
		c0.611-0.104,0.194-0.639,0.371-0.926c0.408,0.014,0.949-0.191,0.917,0.553c-0.013,0.277,0.121,0.389,0.398,0.381
		c0.3-0.008,0.375-0.178,0.358-0.43c-0.038-0.605,0.391-0.518,0.763-0.514c0.103,0.344-0.452,0.904,0.311,1.027
		c0.687,0.113,0.738-0.393,0.782-0.881c0.006-0.063,0.031-0.121,0.048-0.182c0.329-0.342,0.079-0.789,0.214-1.168
		c0.864,0.146,1.131-0.248,1.018-1.064c-0.056-0.406,0.021-0.83-0.015-1.24c-0.05-0.561,0.11-0.822,0.733-0.771
		c0.632,0.053,1.273,0.023,1.909,0.004c0.322-0.012,0.777,0.17,0.888-0.309c0.096-0.406-0.346-0.49-0.595-0.639
		c-1.733-1.037-3.479-2.053-5.221-3.075c0.031-0.391,0.101-0.799-0.4-0.971c-0.077-0.281,0.122-0.414,0.31-0.527
		C13.37,7.701,13.63,7.087,13.23,6.24c-0.445-0.944-1.297-0.658-2.015-0.617c-0.431,0.025-0.586,0.51-0.693,0.903
		c-0.04,0.145-0.039,0.369,0.126,0.423c0.46,0.15,0.578-0.238,0.762-0.531c0.165-0.262,0.467-0.268,0.687-0.164
		c0.217,0.103,0.32,0.371,0.353,0.627c0.035,0.275-0.038,0.617-0.306,0.622C11.241,7.519,11.446,8.144,11.429,8.663z"/>
	<path fill-rule="evenodd" clip-rule="evenodd" fill="#FDFDFD" d="M13.977,16.756c-0.135,0.379,0.115,0.826-0.214,1.168
		c-0.376,0.148-0.758,0.117-1.14,0.035c-0.372-0.004-0.801-0.092-0.763,0.514c0.017,0.252-0.058,0.422-0.358,0.43
		c-0.278,0.008-0.411-0.104-0.398-0.381c0.032-0.744-0.509-0.539-0.917-0.553c-0.333-0.01-0.665-0.02-0.997-0.029
		c-0.372-0.979-0.076-1.992-0.16-2.984c-0.034-0.412-0.028-0.826-0.04-1.24C8.995,13.41,9,13.104,9.005,12.798
		c1.657,0.002,3.316,0.005,4.973,0.008C13.979,14.123,13.978,15.439,13.977,16.756z"/>
	<path fill-rule="evenodd" clip-rule="evenodd" fill="#CECECE" d="M13.977,16.756c0.001-1.316,0.002-2.633,0.002-3.95
		c0.559-0.183,1.179,0.098,1.881-0.227c-1.019-0.594-1.961-1.054-2.799-1.66c-0.842-0.609-1.538-0.591-2.373,0.006
		c-0.85,0.607-1.794,1.081-2.932,1.752c0.629,0.061,0.94,0.091,1.25,0.121C9,13.104,8.995,13.41,8.99,13.715
		c-0.993-0.008-1.986-0.014-2.979-0.027c-0.279-0.004-0.63,0.09-0.761-0.25c-0.146-0.38,0.232-0.485,0.457-0.624
		c1.718-1.059,3.472-2.056,5.278-2.96c0.576-0.012,1.167,0.114,1.709-0.192c1.741,1.022,3.487,2.038,5.221,3.075
		c0.249,0.149,0.69,0.233,0.595,0.639c-0.11,0.479-0.565,0.297-0.888,0.309c-0.636,0.02-1.277,0.049-1.909-0.004
		c-0.623-0.051-0.783,0.211-0.733,0.771c0.035,0.41-0.041,0.834,0.015,1.24C15.107,16.508,14.841,16.902,13.977,16.756z"/>
	<path fill-rule="evenodd" clip-rule="evenodd" fill="#CECECE" d="M11.429,8.663c0.017-0.52-0.188-1.145,0.715-1.161
		c0.268-0.004,0.34-0.347,0.306-0.622c-0.033-0.256-0.136-0.524-0.353-0.627c-0.22-0.104-0.522-0.098-0.687,0.164
		c-0.184,0.293-0.301,0.681-0.762,0.531c-0.166-0.054-0.167-0.278-0.126-0.423c0.107-0.394,0.262-0.878,0.693-0.903
		c0.718-0.041,1.57-0.327,2.015,0.617c0.399,0.847,0.14,1.46-0.627,1.923c-0.188,0.113-0.386,0.247-0.31,0.527
		C12.006,8.681,11.717,8.672,11.429,8.663z"/>
	<path fill-rule="evenodd" clip-rule="evenodd" fill="#FDFDFD" d="M11.429,8.663c0.288,0.009,0.577,0.018,0.865,0.027
		c0.501,0.172,0.431,0.58,0.4,0.971c-0.542,0.306-1.134,0.181-1.709,0.192C11.113,9.449,10.886,8.913,11.429,8.663z"/>
	<path fill-rule="evenodd" clip-rule="evenodd" fill="#CECECE" d="M12.623,17.959c0.382,0.082,0.764,0.113,1.14-0.035
		c-0.017,0.061-0.042,0.119-0.048,0.182c-0.044,0.488-0.095,0.994-0.782,0.881C12.171,18.863,12.725,18.303,12.623,17.959z"/>
	<path fill-rule="evenodd" clip-rule="evenodd" fill="#CECECE" d="M9.189,17.939c0.332,0.01,0.664,0.02,0.997,0.029
		c-0.177,0.287,0.24,0.822-0.371,0.926c-0.367,0.061-0.509-0.146-0.523-0.494C9.285,18.246,9.225,18.094,9.189,17.939z"/>
	<path fill-rule="evenodd" clip-rule="evenodd" fill="#414141" d="M9.005,12.798c-0.31-0.03-0.621-0.06-1.25-0.121
		c1.138-0.671,2.083-1.145,2.932-1.752c0.835-0.597,1.531-0.615,2.373-0.006c0.838,0.606,1.78,1.066,2.799,1.66
		c-0.702,0.325-1.322,0.044-1.881,0.227C12.321,12.803,10.663,12.8,9.005,12.798z"/>
</g>
<path fill-rule="evenodd" clip-rule="evenodd" fill="#333333" d="M7.03-59.752c4.555-0.006,8.246,3.675,8.246,8.224
	c0.001,4.55-3.688,8.234-8.241,8.229c-4.518-0.005-8.2-3.678-8.212-8.19C-1.188-56.047,2.485-59.746,7.03-59.752z M7.043-54.167
	c-1.46-0.013-2.92-0.019-4.38-0.042c-0.328-0.005-0.433,0.119-0.431,0.441c0.013,1.506,0.008,3.014,0.004,4.521
	c0,0.226,0.021,0.407,0.313,0.415c1.365,0.034,2.755,0.167,3.883-0.853c0.145-0.131,0.319-0.158,0.469-0.253
	c0.37-0.02,0.631,0.227,0.932,0.379c0.509,0.259,0.917,0.736,1.546,0.74c0.684,0.004,1.367-0.006,2.051,0.006
	c0.313,0.005,0.45-0.103,0.447-0.436c-0.011-1.526-0.008-3.053-0.001-4.58c0.001-0.29-0.113-0.417-0.402-0.408
	C9.997-54.191,8.518-54.32,7.043-54.167z"/>
<path fill-rule="evenodd" clip-rule="evenodd" fill="#D5D5D5" d="M7.043-54.167c1.475-0.153,2.954-0.024,4.431-0.069
	c0.289-0.009,0.403,0.119,0.402,0.408c-0.007,1.526-0.01,3.053,0.001,4.58c0.003,0.333-0.134,0.441-0.447,0.436
	c-0.684-0.012-1.367-0.002-2.051-0.006c-0.629-0.004-1.037-0.481-1.546-0.74c-0.301-0.153-0.562-0.399-0.932-0.379
	c0.097-0.252,0.16-0.504,0.156-0.783C7.041-51.87,7.046-53.019,7.043-54.167z M9.27-52.657c-0.76,0.048-1.134,0.389-1.079,0.985
	c0.049,0.537,0.588,0.983,1.128,0.934c0.533-0.048,0.954-0.537,0.922-1.068C10.205-52.398,9.867-52.694,9.27-52.657z"/>
<path fill-rule="evenodd" clip-rule="evenodd" fill="#FDFDFD" d="M7.043-54.167c0.003,1.148-0.002,2.297,0.015,3.445
	c0.004,0.279-0.06,0.531-0.156,0.783c-0.149,0.095-0.324,0.122-0.469,0.253c-1.128,1.02-2.518,0.887-3.883,0.853
	c-0.292-0.007-0.313-0.188-0.313-0.415c0.004-1.507,0.009-3.014-0.004-4.521c-0.002-0.323,0.103-0.447,0.431-0.441
	C4.123-54.186,5.583-54.18,7.043-54.167z M4.839-50.823c0.699,0.013,1.093-0.311,1.117-0.92c0.021-0.515-0.535-1.086-1.058-1.089
	c-0.55-0.002-1.035,0.479-1.048,1.04C3.837-51.192,4.201-50.835,4.839-50.823z"/>
<path fill-rule="evenodd" clip-rule="evenodd" fill="#424242" d="M9.27-52.657c0.598-0.038,0.936,0.258,0.971,0.851
	c0.032,0.532-0.389,1.02-0.922,1.068c-0.54,0.049-1.079-0.397-1.128-0.934C8.136-52.268,8.51-52.609,9.27-52.657z"/>
<path fill-rule="evenodd" clip-rule="evenodd" fill="#424242" d="M4.839-50.823c-0.638-0.012-1.002-0.369-0.988-0.97
	c0.013-0.561,0.498-1.042,1.048-1.04c0.522,0.002,1.078,0.574,1.058,1.089C5.932-51.134,5.538-50.811,4.839-50.823z"/>
<path fill-rule="evenodd" clip-rule="evenodd" fill="#666666" d="M31.977-58.555c3.683-0.005,6.697,3.027,6.701,6.739
	c0.004,3.6-3.031,6.626-6.659,6.641c-3.736,0.015-6.725-2.996-6.721-6.77C25.302-55.552,28.331-58.55,31.977-58.555z M29.972-52.533
	c-0.312,0-0.625,0.02-0.936-0.004c-0.561-0.044-0.401,0.371-0.379,0.631c0.022,0.264-0.265,0.732,0.364,0.713
	c0.535-0.016,1.073,0.033,1.604-0.013c0.535-0.046,0.77,0.085,0.706,0.674c-0.056,0.529,0.012,1.07-0.018,1.603
	c-0.033,0.611,0.409,0.391,0.685,0.4c0.287,0.009,0.703,0.179,0.667-0.419c-0.037-0.622,0.005-1.248-0.013-1.871
	c-0.009-0.293,0.094-0.389,0.383-0.381c0.624,0.017,1.25-0.024,1.872,0.013c0.6,0.035,0.423-0.384,0.416-0.669
	c-0.007-0.277,0.207-0.718-0.402-0.682c-0.511,0.03-1.027-0.03-1.536,0.016c-0.558,0.05-0.816-0.079-0.741-0.707
	c0.063-0.527,0.015-1.068,0.013-1.603c-0.001-0.173,0.028-0.33-0.241-0.383c-0.868-0.17-1.096-0.005-1.096,0.87
	c0,0.156,0,0.312,0,0.468C31.319-52.533,31.319-52.533,29.972-52.533z"/>
<path fill-rule="evenodd" clip-rule="evenodd" fill="#666666" d="M67.606-56.299c2.078,0,4.156-0.022,6.234,0.007
	c1.975,0.027,2.996,0.911,3.081,2.902c0.104,2.454,0.099,4.919,0.005,7.374c-0.073,1.891-0.979,2.779-2.931,2.854
	c-3.036,0.117-6.077,0.104-9.117,0.115c-1.278,0.005-2.567,0.016-3.834-0.126c-1.921-0.216-2.72-0.989-2.806-2.89
	c-0.108-2.422-0.112-4.856-0.003-7.277c0.094-2.064,1.088-2.921,3.135-2.951C63.449-56.323,65.528-56.3,67.606-56.299z
	 M65.652-46.848c1.782-0.937,3.42-1.798,5.271-2.771c-1.868-1.058-3.509-1.986-5.271-2.984
	C65.652-50.638,65.652-48.864,65.652-46.848z"/>
<path fill-rule="evenodd" clip-rule="evenodd" fill="#666666" d="M90.078-44.971c-0.306,0.318-0.575,0.601-0.843,0.881
	c-2.815-2.346-3.506-8.082-0.043-11.583c0.247,0.35,0.495,0.7,0.752,1.062C87.323-51.462,87.813-47.6,90.078-44.971z"/>
<path fill-rule="evenodd" clip-rule="evenodd" fill="#666666" d="M99.744-54.793c0.292-0.278,0.588-0.561,0.878-0.838
	c3.13,2.566,3.146,8.765,0.049,11.55c-0.278-0.29-0.559-0.584-0.862-0.9C102.323-48.211,102.306-51.46,99.744-54.793z"/>
<path fill-rule="evenodd" clip-rule="evenodd" fill="#666666" d="M97.103-49.852c0.002,1.148-1.027,2.18-2.177,2.182
	c-1.148,0.002-2.18-1.027-2.182-2.177s1.027-2.18,2.177-2.182C96.069-52.031,97.101-51.002,97.103-49.852z"/>
<path fill-rule="evenodd" clip-rule="evenodd" fill="#666666" d="M92.169-47.129c-0.325,0.296-0.63,0.572-0.935,0.849
	c-1.903-1.734-1.904-5.395,0.075-7.207c0.274,0.298,0.553,0.6,0.828,0.899C90.825-50.195,90.824-49.164,92.169-47.129z"/>
<path fill-rule="evenodd" clip-rule="evenodd" fill="#666666" d="M98.532-46.225c-0.271-0.303-0.546-0.609-0.839-0.937
	c1.326-1.769,1.352-3.563-0.03-5.409c0.339-0.237,0.677-0.475,1.046-0.733C100.509-52.026,100.529-47.958,98.532-46.225z"/>
<path fill-rule="evenodd" clip-rule="evenodd" fill="#666666" d="M124.894-44.404c-0.455-0.182-0.908-0.368-1.366-0.543
	c-0.713-0.273-1.753,0.295-1.911,1.04c-0.005,0.024-0.013,0.048-0.017,0.071c-0.32,1.68-0.32,1.68-2.067,1.68
	c-1.65,0-1.65,0-1.887-1.653c-0.12-0.842-1.146-1.432-1.95-1.122c-1.536,0.594-1.536,0.594-2.353-0.822
	c-0.881-1.528-0.881-1.528,0.444-2.639c0.603-0.504,0.605-1.673,0.005-2.172c-1.328-1.104-1.328-1.104-0.479-2.567
	c0.855-1.478,0.855-1.478,2.43-0.882c0.771,0.292,1.772-0.292,1.903-1.109c0.27-1.683,0.27-1.683,1.952-1.683
	c1.718,0,1.718,0,2.039,1.655c0.174,0.893,1.169,1.433,2.025,1.099c1.474-0.575,1.474-0.575,2.248,0.775
	c0.893,1.556,0.893,1.556-0.457,2.75c-0.539,0.478-0.52,1.676,0.035,2.136c1.311,1.086,1.311,1.086,0.467,2.561
	c-0.208,0.361-0.421,0.72-0.62,1.086c-0.094,0.171-0.162,0.356-0.242,0.535C125.026-44.273,124.96-44.338,124.894-44.404z
	 M122.312-49.504c-0.023-1.409-1.259-2.631-2.655-2.624c-1.428,0.007-2.696,1.309-2.642,2.711c0.056,1.419,1.311,2.625,2.691,2.586
	C121.12-46.871,122.335-48.118,122.312-49.504z"/>
<path fill-rule="evenodd" clip-rule="evenodd" fill="#666666" d="M142.535-37.02c-0.626,0-1.107,0-1.638,0c0-4.902,0-9.761,0-14.679
	c2.543,0,5.067,0,7.605,0c0.025,0.027,0.083,0.063,0.098,0.11c0.479,1.582,0.478,1.581,2.176,1.582
	c0.934,0.001,1.867,0.005,2.801,0.011c0.056,0,0.111,0.025,0.234,0.056c0,2.82,0,5.656,0,8.539c-1.969,0-3.911,0-5.842,0
	c-0.045-0.066-0.089-0.108-0.105-0.159c-0.49-1.547-0.489-1.547-2.111-1.547c-1.044,0-2.089,0-3.218,0
	C142.535-41.06,142.535-39.09,142.535-37.02z"/>
<path fill-rule="evenodd" clip-rule="evenodd" fill="#666666" d="M170.196-49.792c0.07-4.982,4.232-9.093,9.137-9.024
	c4.98,0.07,9.091,4.232,9.023,9.138c-0.067,4.979-4.235,9.093-9.139,9.022C174.236-40.727,170.126-44.89,170.196-49.792z
	 M180.238-46.985c-0.046-1.376,0.726-2.302,1.65-3.13c2.183-1.955,0.871-5.292-1.635-5.961c-2.365-0.632-4.864,1.27-4.578,3.677
	c0.646-0.294,1.575,0.559,1.969-0.628c0.253-0.763,0.86-1.244,1.558-1.16c0.573,0.069,1.23,0.502,1.596,0.973
	c0.501,0.645,0.225,1.39-0.312,1.981c-0.448,0.494-0.954,0.942-1.364,1.466c-0.632,0.806-0.985,1.711-0.721,2.782
	C179.019-46.985,179.586-46.985,180.238-46.985z M180.19-43.332c0-0.672,0-1.231,0-1.828c-0.637,0-1.217,0-1.813,0
	c0,0.645,0,1.226,0,1.828C179.009-43.332,179.568-43.332,180.19-43.332z"/>
<path fill-rule="evenodd" clip-rule="evenodd" fill="#666666" d="M207.457-33.372c0-6.154-0.011-12.307,0.008-18.46
	c0.005-1.412,0.849-2.279,2.267-2.286c5.55-0.027,11.1-0.026,16.648-0.001c1.41,0.006,2.28,0.862,2.291,2.274
	c0.035,4.126,0.033,8.253,0.003,12.379c-0.012,1.521-0.926,2.292-2.599,2.296c-4.482,0.009-8.965,0.018-13.447-0.012
	c-0.731-0.004-1.273,0.181-1.775,0.728c-1.025,1.116-2.111,2.174-3.173,3.256C207.605-33.257,207.531-33.315,207.457-33.372z
	 M217-49.928c0,1.499,0,2.863,0,4.266c0.747,0,1.428,0,2.116,0c0-1.469,0-2.859,0-4.266C218.375-49.928,217.719-49.928,217-49.928z
	 M219.143-43.51c-0.788,0-1.443,0-2.132,0c0,0.747,0,1.426,0,2.113c0.757,0,1.437,0,2.132,0
	C219.143-42.137,219.143-42.792,219.143-43.51z"/>
</svg>
